<?xml version="1.0" encoding="UTF-8"?>
<svg version="1.1" xmlns="http://www.w3.org/2000/svg" width="484" height="515">
<path d="M0 0 C6.00873246 1.35681056 10.11732119 5.10219101 14.875 8.875 C15.865 9.535 16.855 10.195 17.875 10.875 C17.875 11.535 17.875 12.195 17.875 12.875 C18.76058594 13.28878906 18.76058594 13.28878906 19.6640625 13.7109375 C21.76554131 14.81736981 23.40998722 16.00967291 25.25 17.5 C33.09163765 23.46199417 42.02755678 29.29940909 51.875 30.875 C51.875 30.215 51.875 29.555 51.875 28.875 C52.535 28.875 53.195 28.875 53.875 28.875 C53.875 28.215 53.875 27.555 53.875 26.875 C56.6875 25.3125 56.6875 25.3125 59.875 23.875 C60.865 24.205 61.855 24.535 62.875 24.875 C62.875 25.535 62.875 26.195 62.875 26.875 C63.52726563 26.57464844 64.17953125 26.27429688 64.8515625 25.96484375 C70.11791542 23.67343651 73.161174 22.60526089 78.875 23.875 C79.94274658 23.56336914 81.01049316 23.25173828 82.1105957 22.93066406 C85.90753813 21.86587523 88.98826543 21.6168515 92.91796875 21.609375 C93.56768143 21.60746155 94.2173941 21.6055481 94.88679504 21.60357666 C96.25404246 21.60222476 97.62130315 21.6058511 98.98852539 21.61425781 C101.04018344 21.62488441 103.09094839 21.61437441 105.14257812 21.6015625 C127.43227233 21.57699028 151.77555939 27.66636292 168.875 42.875 C168.875 43.535 168.875 44.195 168.875 44.875 C169.46796875 45.1328125 170.0609375 45.390625 170.671875 45.65625 C173.05160965 46.97269895 174.38478792 48.30080782 176.125 50.375 C176.64578125 50.9834375 177.1665625 51.591875 177.703125 52.21875 C178.875 53.875 178.875 53.875 178.875 55.875 C179.473125 56.101875 180.07125 56.32875 180.6875 56.5625 C183.45860904 58.22516542 184.23324743 60.11685568 185.875 62.875 C188.69983349 65.6213659 190.54224593 66.78586945 194.375 67.8125 C199.74724037 69.44335868 201.95224539 72.49086808 205 77.0625 C210.63990971 87.72330494 211.47733852 98.8765717 208.375 110.5 C204.74500668 121.0842963 196.89233427 130.20696868 188.875 137.875 C188.215 137.875 187.555 137.875 186.875 137.875 C186.875 138.535 186.875 139.195 186.875 139.875 C184.7578125 141.8203125 184.7578125 141.8203125 182 144 C180.64261719 145.08667969 180.64261719 145.08667969 179.2578125 146.1953125 C176.875 147.875 176.875 147.875 174.875 147.875 C174.875 148.535 174.875 149.195 174.875 149.875 C172.69484188 151.40172137 170.53887357 152.77802903 168.25 154.125 C167.57718994 154.52468994 166.90437988 154.92437988 166.21118164 155.33618164 C157.84988013 160.19513211 149.07778442 163.89966368 139.875 166.875 C140.29652344 167.50148437 140.71804688 168.12796875 141.15234375 168.7734375 C141.97412109 169.99933594 141.97412109 169.99933594 142.8125 171.25 C143.35777344 172.06210938 143.90304687 172.87421875 144.46484375 173.7109375 C147.26752472 178.0120047 146.95696365 180.79325351 146.875 185.875 C145.885 186.205 144.895 186.535 143.875 186.875 C143.875 188.195 143.875 189.515 143.875 190.875 C142.555 190.875 141.235 190.875 139.875 190.875 C140.08479579 195.07091582 141.13257019 197.47613986 143.6875 200.6875 C148.55139548 206.81413757 151.21212175 213.08618054 151.875 220.875 C152.53886719 220.99617187 153.20273437 221.11734375 153.88671875 221.2421875 C161.37961133 222.66419631 161.37961133 222.66419631 164.8125 224.125 C165.493125 224.3725 166.17375 224.62 166.875 224.875 C168.36 223.885 168.36 223.885 169.875 222.875 C172.20699388 222.79594936 174.54332622 222.78701231 176.875 222.875 C176.875 223.535 176.875 224.195 176.875 224.875 C177.535 224.875 178.195 224.875 178.875 224.875 C179.205 225.865 179.535 226.855 179.875 227.875 C183.12483135 226.78715032 183.12483135 226.78715032 185.875 224.875 C192.12723983 224.2960889 192.12723983 224.2960889 194.8125 226.375 C196.55714302 230.4800424 196.52301897 234.81312147 195.1875 239.0625 C195.084375 239.660625 194.98125 240.25875 194.875 240.875 C195.41125 241.596875 195.9475 242.31875 196.5 243.0625 C198.14599646 246.42931093 197.7911389 247.07377284 196.625 250.5 C196.05547434 251.96378086 195.47330702 253.42274568 194.875 254.875 C194.545 255.865 194.215 256.855 193.875 257.875 C193.215 257.875 192.555 257.875 191.875 257.875 C191.63136719 258.596875 191.38773437 259.31875 191.13671875 260.0625 C187.74347143 267.62639496 180.74768198 273.48818172 173.875 277.875 C174.37 278.65875 174.865 279.4425 175.375 280.25 C176.875 282.875 176.875 282.875 176.875 284.875 C176.215 284.875 175.555 284.875 174.875 284.875 C175.535 285.865 176.195 286.855 176.875 287.875 C176.875 288.865 176.875 289.855 176.875 290.875 C172.91679141 290.30954163 170.2090947 289.06597652 166.875 286.875 C165.71436396 291.13066547 166.11326608 294.5585078 166.875 298.875 C166.21113281 298.67003906 165.54726563 298.46507812 164.86328125 298.25390625 C163.53876953 297.84978516 163.53876953 297.84978516 162.1875 297.4375 C161.31738281 297.17066406 160.44726562 296.90382813 159.55078125 296.62890625 C154.35028507 295.16365696 151.87333066 294.68061093 146.875 296.875 C144.8825675 297.25093066 142.8831326 297.59479545 140.875 297.875 C141.205 299.525 141.535 301.175 141.875 302.875 C140.25 303.5625 140.25 303.5625 137.875 303.875 C136.51375 303.1015625 136.51375 303.1015625 135.125 302.3125 C131.3522112 300.64376649 129.84238988 301.20520481 126.0078125 302.37890625 C119.19698371 303.96311002 112.19907325 301.25213392 105.875 298.875 C104.988125 299.82375 104.10125 300.7725 103.1875 301.75 C98.0131683 307.28533159 91.80284277 307.41645751 84.5859375 307.84765625 C78.16438214 307.89497297 71.98281999 306.96360912 65.91699219 304.83886719 C60.80268543 303.3771309 55.66061794 303.68585525 50.38671875 303.78515625 C48.13086156 303.80558121 45.87500209 303.82575569 43.61914062 303.84570312 C40.09080118 303.88911149 36.56261787 303.9374982 33.03442383 303.99145508 C29.61019436 304.04003419 26.18616997 304.06970647 22.76171875 304.09765625 C21.71972824 304.11941422 20.67773773 304.14117218 19.60417175 304.16358948 C12.64065223 304.21022639 4.45865795 304.10020117 -0.98823547 299.19813538 C-2.04535896 298.01068935 -3.10126496 296.82215884 -4.15625 295.6328125 C-7.34016724 292.79002925 -11.15840006 291.69470212 -15.10546875 290.1953125 C-19.67238059 288.19839633 -23.60375586 285.40460814 -27.125 281.875 C-27.62 280.39 -27.62 280.39 -28.125 278.875 C-28.785 278.875 -29.445 278.875 -30.125 278.875 C-33.9567705 270.18965353 -34.39438085 260.77498119 -31.125 251.875 C-30.465 251.215 -29.805 250.555 -29.125 249.875 C-27.11107045 250.06680281 -25.095057 250.26486 -23.09765625 250.5859375 C-20.96257027 250.94749316 -20.96257027 250.94749316 -18.125 250.875 C-18.03001221 250.33198242 -17.93502441 249.78896484 -17.8371582 249.22949219 C-14.42746227 230.10281805 -8.3406502 212.62537086 4.875 197.875 C5.535 197.875 6.195 197.875 6.875 197.875 C7.14570313 197.27429688 7.41640625 196.67359375 7.6953125 196.0546875 C11.66241771 188.72473815 20.49141428 184.86252618 27.875 181.875 C30.07326377 181.33243895 32.2820217 180.83031127 34.5 180.375 C37.42454903 179.81399085 37.42454903 179.81399085 39.875 178.875 C41.79782004 175.87865304 41.79782004 175.87865304 41.875 172.875 C41.15054688 172.88660156 40.42609375 172.89820313 39.6796875 172.91015625 C38.71289062 172.91917969 37.74609375 172.92820313 36.75 172.9375 C35.79867187 172.94910156 34.84734375 172.96070313 33.8671875 172.97265625 C30.875 172.875 30.875 172.875 28.11987305 172.3684082 C24.66342871 171.84282894 21.45897562 171.81104294 17.96484375 171.8828125 C16.63086729 171.90035188 15.29688237 171.91725789 13.96289062 171.93359375 C11.89859544 171.96425521 9.83474539 171.9994946 7.77075195 172.04638672 C-6.47329536 172.35182467 -18.4986872 169.52858579 -31.6875 164.125 C-32.77651611 163.68397949 -33.86553223 163.24295898 -34.98754883 162.78857422 C-42.45453283 159.70678396 -49.39628632 156.37280326 -56.125 151.875 C-56.79660156 151.46378906 -57.46820313 151.05257812 -58.16015625 150.62890625 C-59.875 149.5625 -59.875 149.5625 -62.125 147.875 C-62.125 147.215 -62.125 146.555 -62.125 145.875 C-62.69734375 145.65328125 -63.2696875 145.4315625 -63.859375 145.203125 C-73.15208363 139.75567511 -81.7791436 122.66287842 -85.125 112.875 C-85.25 109.5625 -85.25 109.5625 -85.125 106.875 C-84.465 106.875 -83.805 106.875 -83.125 106.875 C-82.75761719 106.07835937 -82.75761719 106.07835937 -82.3828125 105.265625 C-80.78919057 102.2367535 -78.91240366 99.46276027 -77 96.625 C-76.27554688 95.54734375 -75.55109375 94.4696875 -74.8046875 93.359375 C-74.25039062 92.53953125 -73.69609375 91.7196875 -73.125 90.875 C-73.785 90.875 -74.445 90.875 -75.125 90.875 C-75.125 90.215 -75.125 89.555 -75.125 88.875 C-75.95 88.648125 -76.775 88.42125 -77.625 88.1875 C-80.42692693 87.1367774 -82.89476125 86.06668906 -85.5 84.625 C-86.53253906 84.06039062 -86.53253906 84.06039062 -87.5859375 83.484375 C-89.125 81.875 -89.125 81.875 -89.515625 79.16015625 C-89.06296234 75.35326325 -87.96605025 72.07284342 -86.5 68.5625 C-86.23002197 67.90531982 -85.96004395 67.24813965 -85.68188477 66.57104492 C-82.71375299 59.57368932 -79.03053646 51.6566033 -72.125 47.875 C-64.56769463 46.57201632 -59.26753624 49.61682747 -53.125 53.875 C-46.50168696 59.16291773 -40.2797937 65.14513044 -35.125 71.875 C-35.125 72.535 -35.125 73.195 -35.125 73.875 C-34.465 73.875 -33.805 73.875 -33.125 73.875 C-31.6171875 75.7734375 -31.6171875 75.7734375 -30 78.25 C-29.46117187 79.06210938 -28.92234375 79.87421875 -28.3671875 80.7109375 C-27.125 82.875 -27.125 82.875 -27.125 84.875 C-26.465 84.875 -25.805 84.875 -25.125 84.875 C-24.57714844 85.61878906 -24.02929688 86.36257812 -23.46484375 87.12890625 C-20.63421718 90.45099386 -17.58355188 92.04136195 -13.6875 93.8125 C-12.96119385 94.15023437 -12.2348877 94.48796875 -11.48657227 94.8359375 C-2.37149699 98.89858011 7.23576577 101.38745568 16.875 103.875 C16.875 100.575 16.875 97.275 16.875 93.875 C16.215 93.545 15.555 93.215 14.875 92.875 C14.875 92.215 14.875 91.555 14.875 90.875 C12.895 89.885 12.895 89.885 10.875 88.875 C10.875 88.215 10.875 87.555 10.875 86.875 C10.215 86.875 9.555 86.875 8.875 86.875 C8.875 86.215 8.875 85.555 8.875 84.875 C8.215 84.875 7.555 84.875 6.875 84.875 C-7.44165346 60.31140168 -16.5763602 38.9197804 -9.48828125 10.36328125 C-7.56668597 5.44641999 -5.3380563 1.49465576 0 0 Z " fill="#2E73B7" transform="translate(154.125,80.125)"/>
<path d="M0 0 C-3.16275494 2.10850329 -6.13471538 3.28830876 -9.6875 4.625 C-10.86699219 5.07101563 -12.04648437 5.51703125 -13.26171875 5.9765625 C-14.61716797 6.48316406 -14.61716797 6.48316406 -16 7 C-15.57847656 7.62648437 -15.15695312 8.25296875 -14.72265625 8.8984375 C-14.17480469 9.71570313 -13.62695312 10.53296875 -13.0625 11.375 C-12.51722656 12.18710938 -11.97195313 12.99921875 -11.41015625 13.8359375 C-8.60747528 18.1370047 -8.91803635 20.91825351 -9 26 C-9.99 26.33 -10.98 26.66 -12 27 C-12 28.32 -12 29.64 -12 31 C-13.32 31 -14.64 31 -16 31 C-15.79020421 35.19591582 -14.74242981 37.60113986 -12.1875 40.8125 C-7.32360452 46.93913757 -4.66287825 53.21118054 -4 61 C-3.33613281 61.12117188 -2.67226563 61.24234375 -1.98828125 61.3671875 C5.50461133 62.78919631 5.50461133 62.78919631 8.9375 64.25 C9.618125 64.4975 10.29875 64.745 11 65 C11.99 64.34 12.98 63.68 14 63 C16.33199388 62.92094936 18.66832622 62.91201231 21 63 C21 63.66 21 64.32 21 65 C21.66 65 22.32 65 23 65 C23.33 65.99 23.66 66.98 24 68 C27.24983135 66.91215032 27.24983135 66.91215032 30 65 C36.25223983 64.4210889 36.25223983 64.4210889 38.9375 66.5 C40.68214302 70.6050424 40.64801897 74.93812147 39.3125 79.1875 C39.209375 79.785625 39.10625 80.38375 39 81 C39.804375 82.0828125 39.804375 82.0828125 40.625 83.1875 C42.27099646 86.55431093 41.9161389 87.19877284 40.75 90.625 C40.18047434 92.08878086 39.59830702 93.54774568 39 95 C38.67 95.99 38.34 96.98 38 98 C37.34 98 36.68 98 36 98 C35.75636719 98.721875 35.51273438 99.44375 35.26171875 100.1875 C31.86847143 107.75139496 24.87268198 113.61318172 18 118 C18.495 118.78375 18.99 119.5675 19.5 120.375 C21 123 21 123 21 125 C20.34 125 19.68 125 19 125 C19.99 126.485 19.99 126.485 21 128 C21 128.99 21 129.98 21 131 C17.04179141 130.43454163 14.3340947 129.19097652 11 127 C9.83936396 131.25566547 10.23826608 134.6835078 11 139 C10.33613281 138.79503906 9.67226563 138.59007812 8.98828125 138.37890625 C7.66376953 137.97478516 7.66376953 137.97478516 6.3125 137.5625 C5.44238281 137.29566406 4.57226562 137.02882813 3.67578125 136.75390625 C-1.52471493 135.28865696 -4.00166934 134.80561093 -9 137 C-10.9924325 137.37593066 -12.9918674 137.71979545 -15 138 C-14.67 139.65 -14.34 141.3 -14 143 C-15.625 143.6875 -15.625 143.6875 -18 144 C-19.36125 143.2265625 -19.36125 143.2265625 -20.75 142.4375 C-24.5227888 140.76876649 -26.03261012 141.33020481 -29.8671875 142.50390625 C-36.67801629 144.08811002 -43.67592675 141.37713392 -50 139 C-50.886875 139.94875 -51.77375 140.8975 -52.6875 141.875 C-57.8618317 147.41033159 -64.07215723 147.54145751 -71.2890625 147.97265625 C-77.71061786 148.01997297 -83.89218001 147.08860912 -89.95800781 144.96386719 C-95.07231457 143.5021309 -100.21438206 143.81085525 -105.48828125 143.91015625 C-107.74413844 143.93058121 -109.99999791 143.95075569 -112.25585938 143.97070312 C-115.78419882 144.01411149 -119.31238213 144.0624982 -122.84057617 144.11645508 C-126.26480564 144.16503419 -129.68883003 144.19470647 -133.11328125 144.22265625 C-134.67626701 144.2552932 -134.67626701 144.2552932 -136.27082825 144.28858948 C-143.23434777 144.33522639 -151.41634205 144.22520117 -156.86323547 139.32313538 C-157.92035896 138.13568935 -158.97626496 136.94715884 -160.03125 135.7578125 C-163.21516724 132.91502925 -167.03340006 131.81970212 -170.98046875 130.3203125 C-175.54738059 128.32339633 -179.47875586 125.52960814 -183 122 C-183.33 121.01 -183.66 120.02 -184 119 C-184.66 119 -185.32 119 -186 119 C-189.8317705 110.31465353 -190.26938085 100.89998119 -187 92 C-186.01 91.01 -186.01 91.01 -185 90 C-182.98607045 90.19180281 -180.970057 90.38986 -178.97265625 90.7109375 C-176.83757027 91.07249316 -176.83757027 91.07249316 -174 91 C-173.90501221 90.45698242 -173.81002441 89.91396484 -173.7121582 89.35449219 C-170.30246227 70.22781805 -164.2156502 52.75037086 -151 38 C-150.34 38 -149.68 38 -149 38 C-148.72929687 37.39929688 -148.45859375 36.79859375 -148.1796875 36.1796875 C-144.2140441 28.85243909 -135.38330711 24.98206565 -128 22 C-125.82191523 21.47970809 -123.63398985 20.99860694 -121.4375 20.5625 C-118.48177522 19.99988378 -118.48177522 19.99988378 -116 19 C-114.11529559 15.57508141 -114.11529559 15.57508141 -113 12 C-109.4375 10.25 -109.4375 10.25 -106 9 C-105.34 8.01 -104.68 7.02 -104 6 C-95.02454645 -0.30707546 -81.4610561 1.00231404 -71 2 C-63.50303224 3.48404608 -54.93482148 5.85333629 -50 12 C-50 12.66 -50 13.32 -50 14 C-48.88625 13.5875 -47.7725 13.175 -46.625 12.75 C-41.6974241 11.09957794 -36.69160902 9.94110508 -31.625 8.8125 C-30.42931396 8.54421387 -30.42931396 8.54421387 -29.20947266 8.27050781 C-26.08697116 7.58901738 -23.2057573 7 -20 7 C-20 6.01 -20 5.02 -20 4 C-15.545 3.505 -15.545 3.505 -11 3 C-11 2.34 -11 1.68 -11 1 C-7.26562152 0.12132271 -3.83225427 -0.08912219 0 0 Z " fill="#2D73B7" transform="translate(310,240)"/>
<path d="M0 0 C11.60446388 4.40969628 21.55918964 14.2856087 29 24 C29 24.66 29 25.32 29 26 C29.66 26 30.32 26 31 26 C32.5078125 27.8984375 32.5078125 27.8984375 34.125 30.375 C34.66382813 31.18710938 35.20265625 31.99921875 35.7578125 32.8359375 C37 35 37 35 37 37 C37.66 37 38.32 37 39 37 C42 41.38461538 42 41.38461538 42 44 C42.91160558 45.39563574 43.88896567 46.7485906 44.89453125 48.078125 C45.51497314 48.90256104 46.13541504 49.72699707 46.7746582 50.57641602 C47.447146 51.45869873 48.11963379 52.34098145 48.8125 53.25 C49.83766724 54.60339478 49.83766724 54.60339478 50.88354492 55.98413086 C52.91600815 58.66100462 54.95653579 61.33151831 57 64 C57.53753906 64.70463379 58.07507813 65.40926758 58.62890625 66.13525391 C64.09091575 73.27774167 69.73146161 80.10635913 75.87890625 86.67578125 C78 89 78 89 80.3125 92.1875 C88.1412659 100.38039454 100.68166433 106.80859624 112 108 C105.53309188 115.58189228 96.67972671 119.41315956 87 121 C87 121.66 87 122.32 87 123 C81.1072831 124.00646955 75.34744713 124.21695742 69.375 124.25 C68.46621094 124.270625 67.55742187 124.29125 66.62109375 124.3125 C54.47716225 124.38062865 43.57391033 120.8126964 32.4375 116.25 C31.34848389 115.80897949 30.25946777 115.36795898 29.13745117 114.91357422 C21.67046717 111.83178396 14.72871368 108.49780326 8 104 C6.99259766 103.38318359 6.99259766 103.38318359 5.96484375 102.75390625 C4.25 101.6875 4.25 101.6875 2 100 C2 99.34 2 98.68 2 98 C1.42765625 97.77828125 0.8553125 97.5565625 0.265625 97.328125 C-9.02708363 91.88067511 -17.6541436 74.78787842 -21 65 C-21.125 61.6875 -21.125 61.6875 -21 59 C-20.34 59 -19.68 59 -19 59 C-18.75507812 58.46890625 -18.51015625 57.9378125 -18.2578125 57.390625 C-16.66419057 54.3617535 -14.78740366 51.58776027 -12.875 48.75 C-12.15054688 47.67234375 -11.42609375 46.5946875 -10.6796875 45.484375 C-10.12539062 44.66453125 -9.57109375 43.8446875 -9 43 C-9.66 43 -10.32 43 -11 43 C-11 42.34 -11 41.68 -11 41 C-11.825 40.773125 -12.65 40.54625 -13.5 40.3125 C-16.30192693 39.2617774 -18.76976125 38.19168906 -21.375 36.75 C-22.06335938 36.37359375 -22.75171875 35.9971875 -23.4609375 35.609375 C-25 34 -25 34 -25.390625 31.28515625 C-24.93796234 27.47826325 -23.84105025 24.19784342 -22.375 20.6875 C-22.10502197 20.03031982 -21.83504395 19.37313965 -21.55688477 18.69604492 C-17.57061109 9.29842496 -12.03840525 -2.60900592 0 0 Z " fill="#E0ABD1" transform="translate(90,128)"/>
<path d="M0 0 C1.05324463 0.36536865 2.10648926 0.7307373 3.19165039 1.10717773 C16.68137802 5.88098035 28.64766642 11.50308601 37.79296875 22.890625 C39.07831639 24.51672207 39.07831639 24.51672207 41.1875 25.875 C43.47990247 27.70892198 44.61939831 29.84375419 45.98046875 32.4140625 C47.14057261 34.51648898 48.46259086 36.45256317 49.8125 38.4375 C51.31050457 40.8764387 52.10861208 42.55944834 52.8125 45.375 C51.65095112 50.0211955 48.60024955 53.22144044 45.0625 56.375 C44.4025 56.375 43.7425 56.375 43.0625 56.375 C42.7325 57.365 42.4025 58.355 42.0625 59.375 C27.85445558 70.62414586 12.63706764 73.63082739 -4.9375 72.375 C-17.03981633 70.7921802 -28.13817775 65.75897801 -35.6796875 55.9765625 C-37.03145661 54.16119203 -37.03145661 54.16119203 -39.4375 52.125 C-46.36433389 44.50548272 -48.84596682 37.46699883 -48.39453125 27.16796875 C-47.36784503 18.64735064 -45.52400605 10.22967204 -38.9375 4.375 C-36.03525357 2.47842841 -33.04898785 0.89833259 -29.9375 -0.625 C-28.82375 -1.223125 -27.71 -1.82125 -26.5625 -2.4375 C-17.33209324 -5.46125394 -8.87434583 -3.16397145 0 0 Z " fill="#5BA6C6" transform="translate(289.9375,162.625)"/>
<path d="M0 0 C6.00873246 1.35681056 10.11732119 5.10219101 14.875 8.875 C15.865 9.535 16.855 10.195 17.875 10.875 C17.875 11.535 17.875 12.195 17.875 12.875 C18.46539062 13.15085937 19.05578125 13.42671875 19.6640625 13.7109375 C21.76554131 14.81736981 23.40998722 16.00967291 25.25 17.5 C29.61992775 20.8602096 34.30919744 23.50499505 39.12646484 26.15869141 C41.67195082 27.5692652 43.80523559 28.80523559 45.875 30.875 C47.195 31.205 48.515 31.535 49.875 31.875 C49.38 36.825 49.38 36.825 48.875 41.875 C48.215 41.875 47.555 41.875 46.875 41.875 C46.38 38.905 46.38 38.905 45.875 35.875 C45.215 35.875 44.555 35.875 43.875 35.875 C43.83632812 36.78378906 43.83632812 36.78378906 43.796875 37.7109375 C43.1685646 46.99279566 40.12351483 54.33833638 35.0390625 62.05859375 C33.43625303 64.55962195 32.1773324 67.20831938 30.875 69.875 C30.215 70.865 29.555 71.855 28.875 72.875 C28.215 72.875 27.555 72.875 26.875 72.875 C26.441875 73.9578125 26.441875 73.9578125 26 75.0625 C25.31316429 76.77958928 24.6090323 78.4900503 23.875 80.1875 C22.79310037 83.09510525 22.09710612 85.98069154 21.4375 89.0078125 C20.875 90.875 20.875 90.875 18.875 93.875 C17.555 93.545 16.235 93.215 14.875 92.875 C14.875 92.215 14.875 91.555 14.875 90.875 C13.555 90.215 12.235 89.555 10.875 88.875 C10.875 88.215 10.875 87.555 10.875 86.875 C10.215 86.875 9.555 86.875 8.875 86.875 C8.875 86.215 8.875 85.555 8.875 84.875 C8.215 84.875 7.555 84.875 6.875 84.875 C-7.44165346 60.31140168 -16.5763602 38.9197804 -9.48828125 10.36328125 C-7.56668597 5.44641999 -5.3380563 1.49465576 0 0 Z " fill="#255E96" transform="translate(154.125,80.125)"/>
<path d="M0 0 C2.89684158 -0.10829314 5.78961019 -0.18743954 8.6875 -0.25 C9.50412109 -0.28351563 10.32074219 -0.31703125 11.16210938 -0.3515625 C15.23839196 -0.41757517 17.47329831 -0.30173531 21.08203125 1.765625 C23 4 23 4 23 8 C23.66 8 24.32 8 25 8 C25.495 9.485 25.495 9.485 26 11 C27.87387216 11.80212628 27.87387216 11.80212628 30.0625 12.1875 C30.79597656 12.34605469 31.52945313 12.50460937 32.28515625 12.66796875 C32.85105469 12.77753906 33.41695313 12.88710938 34 13 C34 13.66 34 14.32 34 15 C34.66 15 35.32 15 36 15 C36 19.62 36 24.24 36 29 C35.34 29 34.68 29 34 29 C31.17312289 39.86559457 31.17312289 39.86559457 31 51 C32.35885116 53.40083438 32.35885116 53.40083438 34 55 C34 55.66 34 56.32 34 57 C36.31 57 38.62 57 41 57 C41 58.32 41 59.64 41 61 C35.375 61.25 35.375 61.25 32 59 C26.83099554 58.1943824 26.83099554 58.1943824 22.3203125 60.2734375 C20.80488628 61.83991475 20.80488628 61.83991475 19.51953125 63.4921875 C14.38130661 68.59078573 5.7275867 67.94316717 -1 68 C-5.81428613 67.58086022 -10.50174837 66.85734215 -15.08493042 65.28450012 C-21.67541463 63.06277607 -27.63251884 62.55938935 -34.5546875 62.55859375 C-35.61865753 62.54538589 -36.68262756 62.53217804 -37.77883911 62.51856995 C-41.14425379 62.478001 -44.50939751 62.45607982 -47.875 62.4375 C-51.26194473 62.41368554 -54.64863554 62.38559108 -58.03543091 62.34571838 C-60.13435996 62.32141907 -62.23342393 62.30651364 -64.33248901 62.30210876 C-65.28092682 62.29192215 -66.22936462 62.28173553 -67.20654297 62.27124023 C-68.03797821 62.26696518 -68.86941345 62.26269012 -69.7260437 62.25828552 C-72.23530578 61.97327298 -73.80531105 61.21544608 -76 60 C-76.99 59.67 -77.98 59.34 -79 59 C-79.33 58.34 -79.66 57.68 -80 57 C-79.34 56.01 -78.68 55.02 -78 54 C-75.5925293 53.67529297 -75.5925293 53.67529297 -72.57421875 53.7421875 C-70.92437988 53.76442383 -70.92437988 53.76442383 -69.24121094 53.78710938 C-68.06848633 53.81611328 -66.89576172 53.84511719 -65.6875 53.875 C-63.29041147 53.90733192 -60.89327091 53.93602836 -58.49609375 53.9609375 C-57.41513428 53.97946777 -56.3341748 53.99799805 -55.22045898 54.01708984 C-50.93396361 53.99434292 -46.70484993 53.6436639 -42.44140625 53.22265625 C-33.98457563 52.67550603 -25.47085634 52.92586432 -17 53 C-17 51.02 -17 49.04 -17 47 C-15.515 46.505 -15.515 46.505 -14 46 C-12.89786379 43.27366306 -12 40.95855967 -12 38 C-13.485 37.505 -13.485 37.505 -15 37 C-16.97930159 33.04139683 -16.5598088 28.30430763 -16 24 C-13.48228063 20.5731042 -10.92867187 18.60057002 -7 17 C-7 16.34 -7 15.68 -7 15 C-5.35 15 -3.7 15 -2 15 C-2 12.69 -2 10.38 -2 8 C-1.01 7.67 -0.02 7.34 1 7 C1 5.68 1 4.36 1 3 C0.34 3 -0.32 3 -1 3 C-0.67 2.01 -0.34 1.02 0 0 Z " fill="#245B90" transform="translate(236,320)"/>
<path d="M0 0 C0.66 0 1.32 0 2 0 C1.67 3.3 1.34 6.6 1 10 C1.66 10 2.32 10 3 10 C3.4125 11.051875 3.825 12.10375 4.25 13.1875 C5.69220829 16.59635596 7.63565426 19.14647928 10 22 C10 22.66 10 23.32 10 24 C10.66 24 11.32 24 12 24 C17.45894441 36.33111809 19.6610495 50.55866016 19 64 C19.95261719 63.91621094 20.90523438 63.83242188 21.88671875 63.74609375 C23.76810547 63.59333984 23.76810547 63.59333984 25.6875 63.4375 C27.54955078 63.28087891 27.54955078 63.28087891 29.44921875 63.12109375 C32.58821146 63.01404339 35.00768876 63.09961085 38 64 C38.99 64.99 38.99 64.99 40 66 C42.48351814 60.44860651 41.85330338 55.83475015 41 50 C38.03 50.495 38.03 50.495 35 51 C31.08750768 46.1093846 30.47018766 43.25178564 31 37 C32 36 32 36 35.0625 35.9375 C36.031875 35.958125 37.00125 35.97875 38 36 C38 36.66 38 37.32 38 38 C38.99 38 39.98 38 41 38 C41.495 39.98 41.495 39.98 42 42 C42.66 42 43.32 42 44 42 C44.33 40.35 44.66 38.7 45 37 C46.98 36.505 46.98 36.505 49 36 C49 35.34 49 34.68 49 34 C47.35 34 45.7 34 44 34 C42.21590198 30.93753253 41.77119979 28.77920727 41.875 25.25 C41.89304687 24.45078125 41.91109375 23.6515625 41.9296875 22.828125 C41.95289063 22.22484375 41.97609375 21.6215625 42 21 C45.47745199 19.41030766 48.16442626 18.58534338 52 19 C54 21 54 21 54.01171875 23.56640625 C53.90472656 24.55511719 53.79773438 25.54382813 53.6875 26.5625 C53.58824219 27.55378906 53.48898437 28.54507812 53.38671875 29.56640625 C53 32 53 32 52 33 C53.32 33.33 54.64 33.66 56 34 C56.33 30.04 56.66 26.08 57 22 C57.66 22 58.32 22 59 22 C58.67 20.35 58.34 18.7 58 17 C61.70415293 14.53056471 63.62144505 14.53086911 68 15 C69.9375 16.5 69.9375 16.5 71 19 C71.38167095 22.51425331 71.37612536 25.80323748 70.3125 29.1875 C70.209375 29.785625 70.10625 30.38375 70 31 C70.53625 31.721875 71.0725 32.44375 71.625 33.1875 C73.27099646 36.55431093 72.9161389 37.19877284 71.75 40.625 C71.18047434 42.08878086 70.59830702 43.54774568 70 45 C69.67 45.99 69.34 46.98 69 48 C68.34 48 67.68 48 67 48 C66.75636719 48.721875 66.51273437 49.44375 66.26171875 50.1875 C62.86847143 57.75139496 55.87268198 63.61318172 49 68 C49.495 68.78375 49.99 69.5675 50.5 70.375 C52 73 52 73 52 75 C51.34 75 50.68 75 50 75 C50.99 76.485 50.99 76.485 52 78 C52 78.99 52 79.98 52 81 C48.04179141 80.43454163 45.3340947 79.19097652 42 77 C40.83936396 81.25566547 41.23826608 84.6835078 42 89 C41.32453125 88.79503906 40.6490625 88.59007812 39.953125 88.37890625 C39.06109375 88.10949219 38.1690625 87.84007812 37.25 87.5625 C36.36828125 87.29566406 35.4865625 87.02882813 34.578125 86.75390625 C32.39434165 86.11531506 30.21164502 85.53224167 28 85 C28 84.34 28 83.68 28 83 C26.329375 82.814375 26.329375 82.814375 24.625 82.625 C21 82 21 82 19 80 C18.67 80.99 18.34 81.98 18 83 C12.22429795 82.76425706 9.9816939 81.35523604 5.84375 77.43359375 C2.80422198 75.07023192 -0.25063003 74.6577842 -4 74 C-3.67 73.01 -3.34 72.02 -3 71 C1.35515272 70.6267012 3.35708332 71.72317708 7 74 C9.69254991 74.70670728 9.69254991 74.70670728 12 75 C12.144375 73.72125 12.28875 72.4425 12.4375 71.125 C12.70642746 68.74307106 12.92226346 67.15547309 14 65 C15.29192279 48.77585338 11.42274649 33.76726647 3.5234375 19.78515625 C2 17 2 17 1 14 C0.34 14 -0.32 14 -1 14 C-1.66 12.68 -2.32 11.36 -3 10 C-3.66 10 -4.32 10 -5 10 C-4.49890042 5.61537866 -3.01704885 3.1999003 0 0 Z " fill="#235D95" transform="translate(279,290)"/>
<path d="M0 0 C3.18532096 0.30596565 4.63395586 0.61645271 6.87890625 2.96875 C11.9858053 10.64687201 16.20743958 17.68741506 17 27 C17.66386719 27.12117188 18.32773437 27.24234375 19.01171875 27.3671875 C26.50461133 28.78919631 26.50461133 28.78919631 29.9375 30.25 C30.618125 30.4975 31.29875 30.745 32 31 C32.99 30.34 33.98 29.68 35 29 C37.33199388 28.92094936 39.66832622 28.91201231 42 29 C42 29.66 42 30.32 42 31 C42.66 31 43.32 31 44 31 C44.495 32.485 44.495 32.485 45 34 C45.99 34 46.98 34 48 34 C48.495 35.98 48.495 35.98 49 38 C48.34 38 47.68 38 47 38 C47.01160156 38.69867188 47.02320313 39.39734375 47.03515625 40.1171875 C47.04417969 41.02726562 47.05320312 41.93734375 47.0625 42.875 C47.07410156 43.77992188 47.08570313 44.68484375 47.09765625 45.6171875 C47 48 47 48 46 50 C44.35 50 42.7 50 41 50 C41.33 48.96875 41.66 47.9375 42 46.875 C42.96433957 43.51007045 43.25115367 40.51615139 43 37 C41.96976543 35.74750048 41.96976543 35.74750048 39.75 35.875 C37.06474086 35.99705723 34.61641797 36.40196161 32 37 C32.14230808 38.41702513 32.28900746 39.8336096 32.4375 41.25 C32.51871094 42.03890625 32.59992188 42.8278125 32.68359375 43.640625 C32.97634993 45.82364639 33.42064419 47.8773182 34 50 C35.65 50 37.3 50 39 50 C39 50.66 39 51.32 39 52 C38.01 52.33 37.02 52.66 36 53 C34.78130071 55.50447516 34.78130071 55.50447516 34 58 C33.34 58 32.68 58 32 58 C31.505 56.02 31.505 56.02 31 54 C30.01 54 29.02 54 28 54 C28 53.34 28 52.68 28 52 C25.03 52.495 25.03 52.495 22 53 C21.53750845 58.48576958 21.53750845 58.48576958 23.5 63.375 C23.995 63.91125 24.49 64.4475 25 65 C25 65.66 25 66.32 25 67 C28.465 66.01 28.465 66.01 32 65 C32.223293 67.06093408 32.42802887 69.1238839 32.625 71.1875 C32.74101562 72.33605469 32.85703125 73.48460937 32.9765625 74.66796875 C33.00023426 78.03330416 32.47419799 80.01221706 31 83 C27.62537285 82.45276317 25.91765 81.9451 23 80 C19.56692835 79.75729175 19.56692835 79.75729175 15.8125 79.875 C13.90404297 79.90207031 13.90404297 79.90207031 11.95703125 79.9296875 C10.98121094 79.95289063 10.00539063 79.97609375 9 80 C8.92483154 79.29504395 8.84966309 78.59008789 8.7722168 77.86376953 C8.4203496 74.61637837 8.05401662 71.3707691 7.6875 68.125 C7.56955078 67.01640625 7.45160156 65.9078125 7.33007812 64.765625 C6.63261531 58.68517993 5.63937317 53.02444818 3.69458008 47.21435547 C2.94677067 44.83030227 2.45249581 42.45563397 2 40 C1.34 40 0.68 40 0 40 C-1.38442 38.03501678 -2.71203834 36.02951535 -4 34 C-4.5775 33.29875 -5.155 32.5975 -5.75 31.875 C-7 30 -7 30 -7 26 C-7.66 26 -8.32 26 -9 26 C-9.125 18.25 -9.125 18.25 -8 16 C-8.66 15.67 -9.32 15.34 -10 15 C-9.52949219 14.50371094 -9.05898438 14.00742187 -8.57421875 13.49609375 C-4.62393472 9.18594947 -1.95387647 5.51682767 0 0 Z " fill="#2E73B6" transform="translate(289,274)"/>
<path d="M0 0 C6.90141141 5.3145359 12.84027637 14.88262729 15.5 23.125 C15.23958177 27.11606075 14.16429025 29.01183423 11.1875 31.625 C2.20867505 38.88751858 -6.52867194 40.68298072 -17.73828125 40.59375 C-25.06627502 39.68060436 -29.37993761 36.9462196 -33.921875 31.37109375 C-37.18841819 26.72192956 -39.09426091 22.19058083 -40.1875 16.625 C-38.98275164 10.49173564 -35.23046187 6.0583136 -30.171875 2.4765625 C-21.68441983 -2.38545652 -9.01250444 -5.03848673 0 0 Z " fill="#060C11" transform="translate(315.5,182.875)"/>
<path d="M0 0 C2.89684158 -0.10829314 5.78961019 -0.18743954 8.6875 -0.25 C9.50412109 -0.28351563 10.32074219 -0.31703125 11.16210938 -0.3515625 C15.23839196 -0.41757517 17.47329831 -0.30173531 21.08203125 1.765625 C23 4 23 4 23 8 C23.66 8 24.32 8 25 8 C25.495 9.485 25.495 9.485 26 11 C27.87387216 11.80212628 27.87387216 11.80212628 30.0625 12.1875 C30.79597656 12.34605469 31.52945313 12.50460937 32.28515625 12.66796875 C32.85105469 12.77753906 33.41695313 12.88710938 34 13 C33.34 13.33 32.68 13.66 32 14 C32.02320313 14.73605469 32.04640625 15.47210938 32.0703125 16.23046875 C32.08835937 17.20628906 32.10640625 18.18210937 32.125 19.1875 C32.14820313 20.15042969 32.17140625 21.11335938 32.1953125 22.10546875 C31.9913544 25.12812778 31.26874632 27.26769985 30 30 C26.04 30.495 26.04 30.495 22 31 C22.24169922 31.98613281 22.24169922 31.98613281 22.48828125 32.9921875 C23.12116356 36.71218278 23.18407455 40.3638536 23.1875 44.125 C23.19974609 44.84042969 23.21199219 45.55585938 23.22460938 46.29296875 C23.23522218 50.07820209 23.15088659 51.77367012 21 55 C17.36119279 56.53638527 13.92353775 57.82600795 10 57 C5.63010481 51.98151184 5.38622661 47.68035694 5.3125 41.1875 C5.27061033 39.47256232 5.22523195 37.75770506 5.17578125 36.04296875 C5.16458252 35.29039795 5.15338379 34.53782715 5.1418457 33.76245117 C5.18946981 31.97343589 5.18946981 31.97343589 4 31 C3.34 31.66 2.68 32.32 2 33 C0.125 33.484375 0.125 33.484375 -2 33.75 C-3.051875 33.89695312 -3.051875 33.89695312 -4.125 34.046875 C-6 34 -6 34 -8 32 C-8.265625 30.125 -8.265625 30.125 -8.25 28 C-8.25515625 27.29875 -8.2603125 26.5975 -8.265625 25.875 C-8 24 -8 24 -6 22 C-3.5 21.6875 -3.5 21.6875 -1 22 C-0.34 22.99 0.32 23.98 1 25 C1.33 22.69 1.66 20.38 2 18 C1.34 18 0.68 18 0 18 C0 18.66 0 19.32 0 20 C-0.99 20 -1.98 20 -3 20 C-3 18.68 -3 17.36 -3 16 C-4.32 16.33 -5.64 16.66 -7 17 C-7 16.34 -7 15.68 -7 15 C-5.35 15 -3.7 15 -2 15 C-2 12.69 -2 10.38 -2 8 C-1.01 7.67 -0.02 7.34 1 7 C1 5.68 1 4.36 1 3 C0.34 3 -0.32 3 -1 3 C-0.67 2.01 -0.34 1.02 0 0 Z M-9 17 C-7 18 -7 18 -7 18 Z " fill="#245C92" transform="translate(236,320)"/>
<path d="M0 0 C-3.16275494 2.10850329 -6.13471538 3.28830876 -9.6875 4.625 C-10.86699219 5.07101563 -12.04648437 5.51703125 -13.26171875 5.9765625 C-14.16535156 6.31429687 -15.06898438 6.65203125 -16 7 C-15.36771484 7.93972656 -15.36771484 7.93972656 -14.72265625 8.8984375 C-14.17480469 9.71570313 -13.62695312 10.53296875 -13.0625 11.375 C-12.51722656 12.18710938 -11.97195313 12.99921875 -11.41015625 13.8359375 C-8.60747528 18.1370047 -8.91803635 20.91825351 -9 26 C-9.99 26.33 -10.98 26.66 -12 27 C-12 28.32 -12 29.64 -12 31 C-13.32 31 -14.64 31 -16 31 C-16.66 32.32 -17.32 33.64 -18 35 C-18.99 35 -19.98 35 -21 35 C-21.309375 35.928125 -21.61875 36.85625 -21.9375 37.8125 C-24.00943204 42.73082412 -27.51379618 46.51704116 -30.94140625 50.546875 C-33.09022102 53.01622031 -33.09022102 53.01622031 -35 56 C-39.27977643 55.25435599 -41.02544093 53.40676945 -43.69775391 50.11279297 C-45.93967881 46.47544424 -46.27821763 42.75182118 -46.6875 38.5625 C-47.40242915 32.20926438 -48.64820275 26.95399911 -51 21 C-51 20.01 -51 19.02 -51 18 C-51.66 18 -52.32 18 -53 18 C-53 17.01 -53 16.02 -53 15 C-46.45920435 12.68384568 -39.87885467 10.89126122 -33.125 9.3125 C-31.72121094 8.97508789 -31.72121094 8.97508789 -30.2890625 8.63085938 C-23.38889153 7 -23.38889153 7 -20 7 C-20 6.01 -20 5.02 -20 4 C-15.545 3.505 -15.545 3.505 -11 3 C-11 2.34 -11 1.68 -11 1 C-7.26562152 0.12132271 -3.83225427 -0.08912219 0 0 Z " fill="#5CA7C9" transform="translate(310,240)"/>
<path d="M0 0 C3.40728094 0.05475987 4.13043584 0.28532688 7 2.4375 C14.65946307 12.43735457 17.54871889 22.78180445 16.25 35.375 C14.54279075 43.77601276 11.49556714 50.60821839 6.25 57.375 C2.46875 56.640625 2.46875 56.640625 0.5 54.25 C-1.02076851 50.75223242 -0.88525192 48.16205378 -0.75 44.375 C-1.03520405 42.69942621 -1.34955696 41.02682755 -1.75 39.375 C-3.4 39.045 -5.05 38.715 -6.75 38.375 C-6.75 39.035 -6.75 39.695 -6.75 40.375 C-7.41 40.375 -8.07 40.375 -8.75 40.375 C-12.88705412 28.75800428 -15.09598383 18.01037656 -9.75 6.375 C-8.21551082 4.33370705 -6.74988543 3.00648549 -4.75 1.375 C-3.75 0.375 -3.75 0.375 0 0 Z " fill="#0F1216" transform="translate(347.75,148.625)"/>
<path d="M0 0 C1.9375 1.5 1.9375 1.5 3 4 C3.38167095 7.51425331 3.37612536 10.80323748 2.3125 14.1875 C1.74934919 16.20438901 1.74934919 16.20438901 3.5625 18.3125 C5 21 5 21 4.5625 24.625 C2.65756252 28.73966496 1.06566327 29.26993052 -3 31 C-3.33 31.99 -3.66 32.98 -4 34 C-4.66 34 -5.32 34 -6 34 C-5.67 35.32 -5.34 36.64 -5 38 C-5.99 38 -6.98 38 -8 38 C-8.33 39.32 -8.66 40.64 -9 42 C-12.465 42.495 -12.465 42.495 -16 43 C-16 43.66 -16 44.32 -16 45 C-18.97 45.495 -18.97 45.495 -22 46 C-25.94998393 41.71650819 -25.35728556 37.78063587 -25.23828125 32.21875 C-24.96296115 28.49967196 -24.29551648 25.48170053 -23 22 C-21.68 21.67 -20.36 21.34 -19 21 C-19 20.34 -19 19.68 -19 19 C-20.65 19 -22.3 19 -24 19 C-25.78409802 15.93753253 -26.22880021 13.77920727 -26.125 10.25 C-26.10695313 9.45078125 -26.08890625 8.6515625 -26.0703125 7.828125 C-26.04710937 7.22484375 -26.02390625 6.6215625 -26 6 C-22.52254801 4.41030766 -19.83557374 3.58534338 -16 4 C-14 6 -14 6 -13.98828125 8.56640625 C-14.09527344 9.55511719 -14.20226562 10.54382813 -14.3125 11.5625 C-14.41175781 12.55378906 -14.51101563 13.54507812 -14.61328125 14.56640625 C-15 17 -15 17 -16 18 C-14.68 18.33 -13.36 18.66 -12 19 C-11.67 15.04 -11.34 11.08 -11 7 C-10.34 7 -9.68 7 -9 7 C-9.33 5.35 -9.66 3.7 -10 2 C-6.29584707 -0.46943529 -4.37855495 -0.46913089 0 0 Z " fill="#255481" transform="translate(347,305)"/>
<path d="M0 0 C6.00873246 1.35681056 10.11732119 5.10219101 14.875 8.875 C15.865 9.535 16.855 10.195 17.875 10.875 C17.875 11.535 17.875 12.195 17.875 12.875 C18.41125 13.101875 18.9475 13.32875 19.5 13.5625 C22.66000863 15.30882056 25.1426983 17.5152849 27.875 19.875 C24.98265685 20.70138376 22.98757569 20.875 19.875 20.875 C14.8833961 21.96131424 14.8833961 21.96131424 10.875 24.875 C9.885 24.875 8.895 24.875 7.875 24.875 C7.875 25.535 7.875 26.195 7.875 26.875 C7.215 26.875 6.555 26.875 5.875 26.875 C5.875 27.535 5.875 28.195 5.875 28.875 C3.5 31.5 3.5 31.5 0.875 33.875 C0.215 33.875 -0.445 33.875 -1.125 33.875 C-1.24875 34.761875 -1.3725 35.64875 -1.5 36.5625 C-2.125 39.875 -2.125 39.875 -3.1875 42.375 C-4.2965309 45.33241574 -4.27072167 47.74198402 -4.125 50.875 C-4.785 50.875 -5.445 50.875 -6.125 50.875 C-6.785 52.195 -7.445 53.515 -8.125 54.875 C-8.61009793 53.50208132 -9.08775513 52.12653297 -9.5625 50.75 C-9.82933594 49.98429687 -10.09617188 49.21859375 -10.37109375 48.4296875 C-14.25829775 35.257504 -13.09933527 19.60302692 -8.125 6.875 C-5.87874677 3.44460139 -4.07943646 1.14224221 0 0 Z " fill="#3577B7" transform="translate(154.125,80.125)"/>
<path d="M0 0 C1.32 0.33 2.64 0.66 4 1 C4 5.62 4 10.24 4 15 C3.34 15 2.68 15 2 15 C-0.82687711 25.86559457 -0.82687711 25.86559457 -1 37 C0.35885116 39.40083438 0.35885116 39.40083438 2 41 C2 41.66 2 42.32 2 43 C4.31 43 6.62 43 9 43 C9 44.32 9 45.64 9 47 C3.375 47.25 3.375 47.25 0 45 C-5.16900446 44.1943824 -5.16900446 44.1943824 -9.6796875 46.2734375 C-11.19511372 47.83991475 -11.19511372 47.83991475 -12.48046875 49.4921875 C-17.61546243 54.58757969 -26.27536757 53.95045008 -33 54 C-39.5064922 53.38287369 -45.77937833 51.97928871 -52 50 C-50.68 48.68 -49.36 47.36 -48 46 C-47.67 46.99 -47.34 47.98 -47 49 C-45.35 49 -43.7 49 -42 49 C-42 48.34 -42 47.68 -42 47 C-39.69 46.34 -37.38 45.68 -35 45 C-34.9175 44.05125 -34.835 43.1025 -34.75 42.125 C-34.5025 41.09375 -34.255 40.0625 -34 39 C-33.3503125 38.7009375 -32.700625 38.401875 -32.03125 38.09375 C-29.79739594 37.17601578 -29.79739594 37.17601578 -29.171875 34.8359375 C-29.03265625 34.02382813 -28.8934375 33.21171875 -28.75 32.375 C-28.60046875 31.55773437 -28.4509375 30.74046875 -28.296875 29.8984375 C-28.19890625 29.27195312 -28.1009375 28.64546875 -28 28 C-27.67 28 -27.34 28 -27 28 C-26.97421875 28.67546875 -26.9484375 29.3509375 -26.921875 30.046875 C-26.67270452 33.96564715 -26.42719095 37.16503587 -24.625 40.6875 C-20.2339424 42.8830288 -15.7280733 41.74997025 -11 41 C-10.01956036 38.05868109 -9.88378798 36.17498335 -9.90234375 33.11328125 C-9.90556641 32.17548828 -9.90878906 31.23769531 -9.91210938 30.27148438 C-9.92048828 29.29501953 -9.92886719 28.31855469 -9.9375 27.3125 C-9.94201172 26.32443359 -9.94652344 25.33636719 -9.95117188 24.31835938 C-9.96295697 21.87884526 -9.97940989 19.43945311 -10 17 C-8 16 -8 16 -2 16 C-1.34 10.72 -0.68 5.44 0 0 Z " fill="#2E6396" transform="translate(268,334)"/>
<path d="M0 0 C3.16115776 1.36983503 3.9927092 1.9890638 6 5 C7.103418 13.22547965 5.11065388 21.09761135 3 29 C2.33355469 29.13535156 1.66710937 29.27070313 0.98046875 29.41015625 C-6.78610493 31.22416717 -12.47095759 34.52526689 -19 39 C-22.54768208 41.37231021 -23.59386991 42 -28 42 C-28.73582158 32.31658797 -21.95572164 22.71461628 -16.26171875 15.2578125 C-15 14 -15 14 -13 14 C-12.773125 13.443125 -12.54625 12.88625 -12.3125 12.3125 C-9.41531166 7.20793006 -4.49477079 3.65853436 0 0 Z " fill="#5AA5C9" transform="translate(216,290)"/>
<path d="M0 0 C1.4540625 0.0309375 1.4540625 0.0309375 2.9375 0.0625 C2.9375 0.7225 2.9375 1.3825 2.9375 2.0625 C3.9275 2.0625 4.9175 2.0625 5.9375 2.0625 C6.2675 3.3825 6.5975 4.7025 6.9375 6.0625 C7.5975 6.0625 8.2575 6.0625 8.9375 6.0625 C8.91429687 7.11050781 8.89109375 8.15851563 8.8671875 9.23828125 C8.84842697 10.61718037 8.83022707 11.9960872 8.8125 13.375 C8.79574219 14.06529297 8.77898437 14.75558594 8.76171875 15.46679688 C8.72532206 19.23385396 8.79371136 20.84681704 10.9375 24.0625 C14.02115871 24.3127157 14.02115871 24.3127157 16.9375 24.0625 C16.9375 23.4025 16.9375 22.7425 16.9375 22.0625 C20.4025 21.5675 20.4025 21.5675 23.9375 21.0625 C24.2675 19.7425 24.5975 18.4225 24.9375 17.0625 C25.9275 17.0625 26.9175 17.0625 27.9375 17.0625 C27.6075 15.7425 27.2775 14.4225 26.9375 13.0625 C27.5975 13.0625 28.2575 13.0625 28.9375 13.0625 C28.9375 12.4025 28.9375 11.7425 28.9375 11.0625 C27.9475 10.7325 26.9575 10.4025 25.9375 10.0625 C28.9075 9.0725 31.8775 8.0825 34.9375 7.0625 C34.6075 8.7125 34.2775 10.3625 33.9375 12.0625 C33.2775 12.0625 32.6175 12.0625 31.9375 12.0625 C31.69386719 12.784375 31.45023437 13.50625 31.19921875 14.25 C27.80597143 21.81389496 20.81018198 27.67568172 13.9375 32.0625 C14.4325 32.84625 14.9275 33.63 15.4375 34.4375 C16.9375 37.0625 16.9375 37.0625 16.9375 39.0625 C16.2775 39.0625 15.6175 39.0625 14.9375 39.0625 C15.5975 40.0525 16.2575 41.0425 16.9375 42.0625 C16.9375 43.0525 16.9375 44.0425 16.9375 45.0625 C13.75140075 44.70848897 12.14683322 44.23222964 9.625 42.1875 C7.9375 40.0625 7.9375 40.0625 7.9375 37.0625 C5.6275 36.7325 3.3175 36.4025 0.9375 36.0625 C0.9375 34.4125 0.9375 32.7625 0.9375 31.0625 C2.5875 31.0625 4.2375 31.0625 5.9375 31.0625 C6.83066269 25.12640334 6.90790422 19.99274803 5.9375 14.0625 C3.9575 14.3925 1.9775 14.7225 -0.0625 15.0625 C-3.97499232 10.1718846 -4.59231234 7.31428564 -4.0625 1.0625 C-3.0625 0.0625 -3.0625 0.0625 0 0 Z " fill="#285482" transform="translate(314.0625,325.9375)"/>
<path d="M0 0 C0 0.33 0 0.66 0 1 C-1.65 1.33 -3.3 1.66 -5 2 C-3.02 2.99 -1.04 3.98 1 5 C1 5.99 1 6.98 1 8 C-3.5307408 8.1458651 -8.0615794 8.28806531 -12.5925293 8.42724609 C-14.12543646 8.47480532 -15.65831588 8.52326976 -17.19116211 8.57275391 C-22.46026459 8.74244567 -27.72939126 8.88604391 -33 9 C-33.78852356 9.01772461 -34.57704712 9.03544922 -35.38946533 9.05371094 C-37.7192898 9.10031337 -40.04876276 9.13093998 -42.37890625 9.15625 C-43.08627426 9.1711145 -43.79364227 9.185979 -44.52244568 9.20129395 C-48.242157 9.22282776 -50.81950883 8.95666685 -54 7 C-54.99 6.67 -55.98 6.34 -57 6 C-57.33 5.34 -57.66 4.68 -58 4 C-57.34 3.01 -56.68 2.02 -56 1 C-53.5925293 0.67529297 -53.5925293 0.67529297 -50.57421875 0.7421875 C-49.47392334 0.75701172 -48.37362793 0.77183594 -47.23999023 0.78710938 C-45.48150757 0.83061523 -45.48150757 0.83061523 -43.6875 0.875 C-41.29692215 0.90734226 -38.90629194 0.93603643 -36.515625 0.9609375 C-35.37544922 0.97350586 -34.23527344 0.98607422 -33.06054688 0.99902344 C-28.69968729 1.00041491 -24.44834073 0.64816256 -20.109375 0.22265625 C-13.42256575 -0.25617306 -6.69993765 -0.0722149 0 0 Z " fill="#235E96" transform="translate(214,373)"/>
<path d="M0 0 C3.72249636 1.5434741 4.66690793 3.53701601 6.5625 7.0625 C7.09080926 9.95962336 7.07903476 12.75046645 7 15.6875 C7.00708984 16.43773437 7.01417969 17.18796875 7.02148438 17.9609375 C6.98440381 21.17838951 6.7711863 23.65414471 5.296875 26.5390625 C2.31292301 29.16010141 -0.5609726 28.80830148 -4.4375 29.0625 C-8.06655578 24.41299685 -8.96684181 21.56768249 -8.875 15.5 C-8.87371094 14.21996094 -8.87242187 12.93992187 -8.87109375 11.62109375 C-8.32672886 7.15337829 -6.65843723 4.7274144 -4.0625 1.1875 C-2.4375 0.0625 -2.4375 0.0625 0 0 Z " fill="#040C14" transform="translate(250.4375,347.9375)"/>
<path d="M0 0 C1.32 0.33 2.64 0.66 4 1 C4 5.62 4 10.24 4 15 C3.34 15 2.68 15 2 15 C-0.82687711 25.86559457 -0.82687711 25.86559457 -1 37 C0.35885116 39.40083438 0.35885116 39.40083438 2 41 C2 41.66 2 42.32 2 43 C4.31 43 6.62 43 9 43 C9 44.32 9 45.64 9 47 C3.375 47.25 3.375 47.25 0 45 C-2.62531524 44.83286431 -2.62531524 44.83286431 -5 45 C-5.66 43.35 -6.32 41.7 -7 40 C-9.0745356 39.8509288 -9.0745356 39.8509288 -11 41 C-10.67 40.01 -10.34 39.02 -10 38 C-9.91856145 36.37280518 -9.8924698 34.74248281 -9.90234375 33.11328125 C-9.90556641 32.17548828 -9.90878906 31.23769531 -9.91210938 30.27148438 C-9.92048828 29.29501953 -9.92886719 28.31855469 -9.9375 27.3125 C-9.94426758 25.83040039 -9.94426758 25.83040039 -9.95117188 24.31835938 C-9.96295697 21.87884526 -9.97940989 19.43945311 -10 17 C-8 16 -8 16 -2 16 C-1.34 10.72 -0.68 5.44 0 0 Z " fill="#235D96" transform="translate(268,334)"/>
<path d="M0 0 C2.3125 1.375 2.3125 1.375 4 4 C5.24488603 10.52412495 3.95607993 15.17609227 0.2890625 20.6015625 C-0.13632812 21.06304687 -0.56171875 21.52453125 -1 22 C-1.66 22 -2.32 22 -3 22 C-3 22.66 -3 23.32 -3 24 C-4.98 24.33 -6.96 24.66 -9 25 C-12.1462893 21.59568169 -12.40669674 19.13211366 -12.375 14.5625 C-12.38273437 13.45003906 -12.39046875 12.33757812 -12.3984375 11.19140625 C-11.85441124 6.83386254 -10.25242445 4.21067697 -7.125 1.1875 C-4.44608612 -0.30954011 -3.02486171 -0.5293508 0 0 Z " fill="#050C13" transform="translate(334,326)"/>
<path d="M0 0 C1.2065625 0.0309375 1.2065625 0.0309375 2.4375 0.0625 C1.4475 0.5575 1.4475 0.5575 0.4375 1.0625 C0.7675 1.61550781 1.0975 2.16851562 1.4375 2.73828125 C2.61436847 5.47358101 2.57424315 7.28865625 2.4375 10.25 C2.35760865 15.21657884 2.30092071 20.47691709 4.4375 25.0625 C6.37401223 26.2312925 6.37401223 26.2312925 8.4375 27.0625 C10.25 28.875 10.25 28.875 11.4375 31.0625 C11.125 33.8125 11.125 33.8125 10.4375 36.0625 C5.39325532 35.61741959 2.99306591 33.45269075 -0.5625 30.0625 C-0.5625 29.4025 -0.5625 28.7425 -0.5625 28.0625 C-1.2225 28.0625 -1.8825 28.0625 -2.5625 28.0625 C-6.42650449 19.30408983 -6.74252638 10.04139801 -3.5625 1.0625 C-2.5625 0.0625 -2.5625 0.0625 0 0 Z " fill="#296198" transform="translate(126.5625,330.9375)"/>
<path d="M0 0 C0.66 0.66 1.32 1.32 2 2 C1.23816406 2.30292969 0.47632813 2.60585937 -0.30859375 2.91796875 C-14.46078008 8.08588063 -14.46078008 8.08588063 -24 19 C-25.89859017 24.26499794 -27.03367783 29.49642264 -27.5625 35.0625 C-28 39 -28 39 -30 41 C-33.17083052 34.65833896 -32.08253484 23.30752342 -29.94140625 16.765625 C-25.7331744 9.421177 -19.25687329 3.04960589 -11.08984375 0.4296875 C-7.4246856 -0.32389642 -3.70547104 -0.59195284 0 0 Z " fill="#061B30" transform="translate(270,156)"/>
<path d="M0 0 C5.89939466 0.56184711 9.34363169 2.94345679 13.9375 6.5 C14.288125 6.995 14.63875 7.49 15 8 C14.71202981 9.34386088 14.36784131 10.6757713 14 12 C14.27313343 14.34114367 14.59802999 16.67750658 15 19 C14.32453125 18.79503906 13.6490625 18.59007812 12.953125 18.37890625 C12.06109375 18.10949219 11.1690625 17.84007812 10.25 17.5625 C9.36828125 17.29566406 8.4865625 17.02882813 7.578125 16.75390625 C5.39434165 16.11531506 3.21164502 15.53224167 1 15 C1 14.34 1 13.68 1 13 C-0.11375 12.87625 -1.2275 12.7525 -2.375 12.625 C-6 12 -6 12 -8 10 C-7.625 7.375 -7.625 7.375 -7 5 C-4.69 5 -2.38 5 0 5 C0 3.35 0 1.7 0 0 Z " fill="#040B13" transform="translate(306,360)"/>
<path d="M0 0 C0.99 0.66 1.98 1.32 3 2 C1.38150935 3.83946539 -0.24418831 5.67151417 -1.875 7.5 C-2.33519531 8.02464844 -2.79539062 8.54929688 -3.26953125 9.08984375 C-4.47172076 10.43141755 -5.73245946 11.71999185 -7 13 C-7.66 13 -8.32 13 -9 13 C-9 13.66 -9 14.32 -9 15 C-11.1171875 16.9453125 -11.1171875 16.9453125 -13.875 19.125 C-14.77992188 19.84945312 -15.68484375 20.57390625 -16.6171875 21.3203125 C-19 23 -19 23 -21 23 C-21 23.66 -21 24.32 -21 25 C-23.38934571 26.61964355 -25.76317356 28.10763758 -28.25 29.5625 C-28.93191406 29.97435547 -29.61382812 30.38621094 -30.31640625 30.81054688 C-33.54694629 32.72691577 -36.2965075 34.21507612 -40 35 C-40 34.34 -40 33.68 -40 33 C-40.66 33 -41.32 33 -42 33 C-41.67 32.34 -41.34 31.68 -41 31 C-39.35 31.33 -37.7 31.66 -36 32 C-36 31.34 -36 30.68 -36 30 C-37.65 29.67 -39.3 29.34 -41 29 C-37.29543066 26.53028711 -33.35793025 24.67199517 -29.35742188 22.7421875 C-22.99869369 19.62100338 -17.87305037 16.14377539 -13 11 C-12.34 10.34 -11.68 9.68 -11 9 C-10.01 9 -9.02 9 -8 9 C-8 8.34 -8 7.68 -8 7 C-6.68 6.67 -5.36 6.34 -4 6 C-4.495 3.525 -4.495 3.525 -5 1 C-3.68 1 -2.36 1 -1 1 C-0.67 0.67 -0.34 0.34 0 0 Z " fill="#5087BA" transform="translate(350,205)"/>
<path d="M0 0 C2.45703125 2.078125 2.45703125 2.078125 4 4 C4 4.66 4 5.32 4 6 C2.35 6.33 0.7 6.66 -1 7 C-1.495 5.515 -1.495 5.515 -2 4 C-2.66 4 -3.32 4 -4 4 C-4 3.34 -4 2.68 -4 2 C-4.83144531 1.79503906 -5.66289062 1.59007812 -6.51953125 1.37890625 C-7.60621094 1.10949219 -8.69289062 0.84007812 -9.8125 0.5625 C-10.89144531 0.29566406 -11.97039062 0.02882812 -13.08203125 -0.24609375 C-15.0740843 -0.76077412 -17.04811524 -1.34937175 -19 -2 C-20.91765594 -2.14939774 -22.83946522 -2.24810283 -24.76171875 -2.31640625 C-26.43911133 -2.37924805 -26.43911133 -2.37924805 -28.15039062 -2.44335938 C-29.31763672 -2.48267578 -30.48488281 -2.52199219 -31.6875 -2.5625 C-32.86634766 -2.60568359 -34.04519531 -2.64886719 -35.25976562 -2.69335938 C-38.17305883 -2.79951176 -41.08643757 -2.90156242 -44 -3 C-44.30164063 -2.38640625 -44.60328125 -1.7728125 -44.9140625 -1.140625 C-46.09570459 1.18865508 -47.21874421 3.08172453 -49 5 C-50.32 5 -51.64 5 -53 5 C-53 5.66 -53 6.32 -53 7 C-55.31 7.33 -57.62 7.66 -60 8 C-59.9375 6.1875 -59.9375 6.1875 -59 4 C-56.68895182 2.94952356 -54.35416349 1.94992562 -52 1 C-51.34 0.01 -50.68 -0.98 -50 -2 C-36.72004475 -11.33186044 -13.50773319 -6.96967062 0 0 Z " fill="#22619E" transform="translate(256,248)"/>
<path d="M0 0 C0.66 0.33 1.32 0.66 2 1 C2.99 0.67 3.98 0.34 5 0 C7.74822309 0.91607436 8.76898598 1.60727617 10.25 4.125 C10.4975 4.74375 10.745 5.3625 11 6 C10.34 6 9.68 6 9 6 C9.01160156 6.69867188 9.02320313 7.39734375 9.03515625 8.1171875 C9.04417969 9.02726562 9.05320312 9.93734375 9.0625 10.875 C9.07410156 11.77992188 9.08570313 12.68484375 9.09765625 13.6171875 C9 16 9 16 8 18 C6.35 18 4.7 18 3 18 C3.33 16.96875 3.66 15.9375 4 14.875 C4.96433957 11.51007045 5.25115367 8.51615139 5 5 C3.96976543 3.74750048 3.96976543 3.74750048 1.75 3.875 C-0.93525914 3.99705723 -3.38358203 4.40196161 -6 5 C-5.85769192 6.41702513 -5.71099254 7.8336096 -5.5625 9.25 C-5.44068359 10.43335938 -5.44068359 10.43335938 -5.31640625 11.640625 C-5.02365007 13.82364639 -4.57935581 15.8773182 -4 18 C-2.35 18 -0.7 18 1 18 C1 18.66 1 19.32 1 20 C0.01 20.33 -0.98 20.66 -2 21 C-3.21869929 23.50447516 -3.21869929 23.50447516 -4 26 C-4.66 26 -5.32 26 -6 26 C-6.33 24.68 -6.66 23.36 -7 22 C-7.99 22 -8.98 22 -10 22 C-10 21.34 -10 20.68 -10 20 C-11.98 20 -13.96 20 -16 20 C-13.8614515 17.8614515 -12.86724686 17.57344937 -10 17 C-10.061875 15.453125 -10.061875 15.453125 -10.125 13.875 C-10.00318706 10.09879894 -9.35018888 7.49460651 -8 4 C-7.67 3.01 -7.34 2.02 -7 1 C-4.50564175 -0.24717912 -2.76297351 -0.13814868 0 0 Z " fill="#235E96" transform="translate(327,306)"/>
<path d="M0 0 C1.32 0.33 2.64 0.66 4 1 C4 1.66 4 2.32 4 3 C6.475 3.99 6.475 3.99 9 5 C9 5.66 9 6.32 9 7 C11.475 7.99 11.475 7.99 14 9 C13.814375 9.61875 13.62875 10.2375 13.4375 10.875 C12.76313824 13.04160178 12.76313824 13.04160178 14 15 C15.65821773 15.37309899 17.32577014 15.70700977 19 16 C19.33 16.33 19.66 16.66 20 17 C21.53382679 17.1225355 23.07310519 17.17777938 24.61157227 17.20532227 C25.59251358 17.22526749 26.5734549 17.24521271 27.5841217 17.26576233 C29.18410255 17.29083107 29.18410255 17.29083107 30.81640625 17.31640625 C31.9025975 17.33718735 32.98878876 17.35796844 34.1078949 17.37937927 C37.59269627 17.44499442 41.07757568 17.50381511 44.5625 17.5625 C46.91862801 17.60567385 49.27474799 17.64928776 51.63085938 17.69335938 C57.42048937 17.80068792 63.21019775 17.90243165 69 18 C69 18.33 69 18.66 69 19 C59.33447041 19.37586505 49.66843032 19.70925849 40 20 C38.47681152 20.04737305 38.47681152 20.04737305 36.92285156 20.09570312 C15.18424731 20.70279626 15.18424731 20.70279626 9.1328125 15.34765625 C7.97734776 14.13313443 6.84348694 12.89761853 5.734375 11.640625 C3.77397381 9.78619144 2.17010751 9.09836917 -0.375 8.25 C-1.57125 7.8375 -2.7675 7.425 -4 7 C-4.33 6.01 -4.66 5.02 -5 4 C-3.35 3.34 -1.7 2.68 0 2 C0 1.34 0 0.68 0 0 Z " fill="#2C6091" transform="translate(144,364)"/>
<path d="M0 0 C0.66 0 1.32 0 2 0 C1.67 3.3 1.34 6.6 1 10 C1.66 10 2.32 10 3 10 C3.4125 11.051875 3.825 12.10375 4.25 13.1875 C5.69220829 16.59635596 7.63565426 19.14647928 10 22 C10 22.66 10 23.32 10 24 C10.66 24 11.32 24 12 24 C15.07677695 31.58739171 16.92380059 38.88602288 18 47 C17.34 47 16.68 47 16 47 C15.67 49.31 15.34 51.62 15 54 C14.67 54 14.34 54 14 54 C13.89042969 53.10539062 13.78085937 52.21078125 13.66796875 51.2890625 C12.10782887 39.3914104 9.41356814 30.21093601 3.5234375 19.78515625 C2 17 2 17 1 14 C0.34 14 -0.32 14 -1 14 C-1.66 12.68 -2.32 11.36 -3 10 C-3.66 10 -4.32 10 -5 10 C-4.49890042 5.61537866 -3.01704885 3.1999003 0 0 Z " fill="#22629D" transform="translate(279,290)"/>
<path d="M0 0 C2.97 0.33 5.94 0.66 9 1 C9.33 1.99 9.66 2.98 10 4 C10.66 4 11.32 4 12 4 C11.71125 4.78375 11.4225 5.5675 11.125 6.375 C9.73239716 10.8622758 8.85728019 15.385279 8 20 C5.69 20.33 3.38 20.66 1 21 C0.25084631 13.9633064 -0.10256275 7.0768299 0 0 Z " fill="#265F97" transform="translate(307,302)"/>
<path d="M0 0 C0.33 0 0.66 0 1 0 C1 1.65 1 3.3 1 5 C1.56589844 5.12632812 2.13179687 5.25265625 2.71484375 5.3828125 C5.11375061 6.03072239 7.2858516 6.88113319 9.5625 7.875 C10.32691406 8.20242187 11.09132812 8.52984375 11.87890625 8.8671875 C14.03870786 10.02067271 15.3149105 11.25062916 17 13 C18.73443598 13.99569473 20.47006073 14.98975326 22.22265625 15.953125 C24.67821539 17.39947632 26.80939338 19.18492595 29 21 C29.66 21.33 30.32 21.66 31 22 C31 22.66 31 23.32 31 24 C31.721875 24.061875 32.44375 24.12375 33.1875 24.1875 C36.88399074 25.2553751 38.53138868 27.10819816 41 30 C41 30.66 41 31.32 41 32 C41.66 32 42.32 32 43 32 C43.495 33.98 43.495 33.98 44 36 C41.6875 36.6875 41.6875 36.6875 39 37 C37.1875 35.6875 37.1875 35.6875 36 34 C36 33.34 36 32.68 36 32 C35.360625 31.731875 34.72125 31.46375 34.0625 31.1875 C32 30 32 30 31 27 C30.34 27 29.68 27 29 27 C27.31183067 25.35511706 25.64646685 23.68662458 24 22 C23.01 21.34 22.02 20.68 21 20 C21 19.34 21 18.68 21 18 C20.01 18 19.02 18 18 18 C18 17.34 18 16.68 18 16 C17.34 16 16.68 16 16 16 C16 15.34 16 14.68 16 14 C15.21625 13.773125 14.4325 13.54625 13.625 13.3125 C8.87698375 11.59339067 4.47897448 9.31915279 0 7 C0 4.69 0 2.38 0 0 Z " fill="#22629F" transform="translate(172,179)"/>
<path d="M0 0 C2.31 0.66 4.62 1.32 7 2 C7 2.66 7 3.32 7 4 C7.99 4.33 8.98 4.66 10 5 C10 5.66 10 6.32 10 7 C10.66 7 11.32 7 12 7 C13.89178514 15.21274976 13.27252229 23.72860508 12 32 C12.69867188 32.02578125 13.39734375 32.0515625 14.1171875 32.078125 C15.48230469 32.16320312 15.48230469 32.16320312 16.875 32.25 C17.77992188 32.29640625 18.68484375 32.3428125 19.6171875 32.390625 C22 33 22 33 23.3203125 35.046875 C23.54460937 35.69140625 23.76890625 36.3359375 24 37 C22.02 37.495 22.02 37.495 20 38 C20 37.34 20 36.68 20 36 C16.04 35.67 12.08 35.34 8 35 C7.875 25.375 7.875 25.375 9 22 C9.14359334 20.19127624 9.22046121 18.37667423 9.25 16.5625 C9.27578125 15.61503906 9.3015625 14.66757812 9.328125 13.69140625 C8.94585411 10.55587479 8.14858744 9.27587343 6 7 C4.700625 6.2575 4.700625 6.2575 3.375 5.5 C1 4 1 4 0.1875 1.8125 C0.125625 1.214375 0.06375 0.61625 0 0 Z " fill="#22629C" transform="translate(212,284)"/>
<path d="M0 0 C6.12424677 0.32232878 11.241312 3.29788817 16 7 C17.8515625 9.49609375 17.8515625 9.49609375 19 12 C18.1875 15.3125 18.1875 15.3125 17 18 C17.66 18 18.32 18 19 18 C19.2475 18.886875 19.495 19.77375 19.75 20.6875 C20.83140107 24.08269921 20.83140107 24.08269921 23.1875 26.6875 C23.785625 27.450625 24.38375 28.21375 25 29 C24.67 29.99 24.34 30.98 24 32 C18.69246655 25.67384902 13.58765575 19.22366275 8.625 12.625 C8.11356445 11.94759766 7.60212891 11.27019531 7.07519531 10.57226562 C4.51318695 7.14606757 2.11581722 3.72786844 0 0 Z " fill="#2E6FB0" transform="translate(130,170)"/>
<path d="M0 0 C1 1 1 1 1.125 4.3125 C1.02893262 7.14648763 0.85249568 9.33595099 0 12 C-2.64 12.33 -5.28 12.66 -8 13 C-7.75830078 13.98613281 -7.75830078 13.98613281 -7.51171875 14.9921875 C-6.87883644 18.71218278 -6.81592545 22.3638536 -6.8125 26.125 C-6.80025391 26.84042969 -6.78800781 27.55585938 -6.77539062 28.29296875 C-6.76477782 32.07820209 -6.84911341 33.77367012 -9 37 C-9.66 36.67 -10.32 36.34 -11 36 C-10.67 35.34 -10.34 34.68 -10 34 C-9.84870448 31.21558045 -9.76861571 28.47287513 -9.75 25.6875 C-9.729375 24.92759766 -9.70875 24.16769531 -9.6875 23.38476562 C-9.65469524 18.66498122 -10.18108339 15.95390146 -13 12 C-13 11.34 -13 10.68 -13 10 C-12.01 9.67 -11.02 9.34 -10 9 C-9.9175 8.071875 -9.835 7.14375 -9.75 6.1875 C-9 3 -9 3 -7.25 1.125 C-4.61350511 -0.19324745 -2.91179131 -0.31478825 0 0 Z " fill="#25507B" transform="translate(266,338)"/>
<path d="M0 0 C0.33 0 0.66 0 1 0 C1.28875 1.2375 1.5775 2.475 1.875 3.75 C2.61334794 6.72448742 3.44474933 9.333856 5 12 C7.31 11.34 9.62 10.68 12 10 C12.33 14.29 12.66 18.58 13 23 C12.34 23.33 11.68 23.66 11 24 C11 23.01 11 22.02 11 21 C4.474566 19.99607024 4.474566 19.99607024 -2 21 C-2.28307925 13.75002578 -1.50974035 7.09038772 0 0 Z " fill="#235D95" transform="translate(309,329)"/>
<path d="M0 0 C4.91334183 -0.35095299 7.85074216 0.32027098 12 3 C14.30191739 5.13197718 16.47642364 7.2433346 18 10 C17.66015625 12.22265625 17.66015625 12.22265625 17 14 C13.26512223 13.5020163 11.18762365 13.12508244 8 11 C8 10.34 8 9.68 8 9 C7.071875 8.71125 6.14375 8.4225 5.1875 8.125 C2 7 2 7 -1 5 C-0.67 3.35 -0.34 1.7 0 0 Z " fill="#040D16" transform="translate(278,370)"/>
<path d="M0 0 C1.32 0.33 2.64 0.66 4 1 C4 2.32 4 3.64 4 5 C4.598125 5.103125 5.19625 5.20625 5.8125 5.3125 C8.31258286 6.09824033 9.37535082 6.96918853 11 9 C11 9.66 11 10.32 11 11 C10.34 11 9.68 11 9 11 C9.99 12.485 9.99 12.485 11 14 C11 14.99 11 15.98 11 17 C7.81390075 16.64598897 6.20933322 16.16972964 3.6875 14.125 C2 12 2 12 2 9 C-0.31 8.67 -2.62 8.34 -5 8 C-5 6.35 -5 4.7 -5 3 C-3.35 3 -1.7 3 0 3 C0 2.01 0 1.02 0 0 Z " fill="#04101D" transform="translate(320,354)"/>
<path d="M0 0 C0 0.66 0 1.32 0 2 C0.66 2 1.32 2 2 2 C1 4 1 4 -1 4.6875 C-1.66 4.790625 -2.32 4.89375 -3 5 C-3.33 4.67 -3.66 4.34 -4 4 C-6.33297433 3.95907063 -8.66705225 3.95758277 -11 4 C-10.67 4.99 -10.34 5.98 -10 7 C-10.99 7.495 -10.99 7.495 -12 8 C-13.29930238 12.28769786 -13.07516774 16.56510345 -13 21 C-15.31 21.33 -17.62 21.66 -20 22 C-21.76198299 30.31124051 -23.42029353 38.50430168 -24 47 C-23.01 47.33 -22.02 47.66 -21 48 C-22.32 48 -23.64 48 -25 48 C-25.18868729 40.13802971 -25.3203695 32.64150879 -23.4375 24.953125 C-22.89070835 22.8456784 -22.89070835 22.8456784 -23 20 C-19.535 19.505 -19.535 19.505 -16 19 C-15.96261719 18.34773438 -15.92523438 17.69546875 -15.88671875 17.0234375 C-15.48506238 11.68377043 -14.83238391 7.6795908 -12 3 C-12.66 3 -13.32 3 -14 3 C-13.67 2.34 -13.34 1.68 -13 1 C-12.01 1.33 -11.02 1.66 -10 2 C-6.3558226 -0.4294516 -4.28758728 -0.16179575 0 0 Z " fill="#2867A4" transform="translate(331,303)"/>
<path d="M0 0 C0.33 0.66 0.66 1.32 1 2 C0.67 2.99 0.34 3.98 0 5 C0.99 4.67 1.98 4.34 3 4 C3.05454409 6.35448675 3.0939279 8.70767875 3.125 11.0625 C3.14820312 12.37347656 3.17140625 13.68445313 3.1953125 15.03515625 C2.99417522 19.11824299 2.27165462 22.14999053 1 26 C1.639375 26.226875 2.27875 26.45375 2.9375 26.6875 C5 28 5 28 5.75 30.625 C5.87375 31.800625 5.87375 31.800625 6 33 C4 31.625 4 31.625 2 30 C2 29.34 2 28.68 2 28 C1.34 28 0.68 28 0 28 C-3.86400449 19.24158983 -4.18002638 9.97889801 -1 1 C-0.67 0.67 -0.34 0.34 0 0 Z " fill="#3E709C" transform="translate(124,331)"/>
<path d="M0 0 C2.375 0.375 2.375 0.375 4.375 2.375 C4.8125 5.1875 4.8125 5.1875 4.375 8.375 C2.125 11.3125 2.125 11.3125 -0.625 13.375 C-2.8125 13.375 -2.8125 13.375 -4.625 12.375 C-6.79051116 9.12673326 -7.17656953 8.14405843 -6.625 4.375 C-4.56988147 1.55872646 -3.48227409 0.49746773 0 0 Z " fill="#060910" transform="translate(328.625,308.625)"/>
<path d="M0 0 C2.25 0.375 2.25 0.375 3.25 1.375 C4.05079851 7.32378893 4.05079851 7.32378893 2.05078125 9.94921875 C-1.08492752 12.705799 -2.51093034 13.375 -6.75 13.375 C-8.19430855 10.48638291 -8.12688506 8.57852299 -7.75 5.375 C-5.34416054 2.21303957 -4.00213481 0.54574566 0 0 Z " fill="#051320" transform="translate(344.75,310.625)"/>
<path d="M0 0 C1.9375 1.5 1.9375 1.5 3 4 C3.38167095 7.51425331 3.37612536 10.80323748 2.3125 14.1875 C1.74934919 16.20438901 1.74934919 16.20438901 3.5625 18.3125 C5 21 5 21 4.1875 24.8125 C3.795625 25.864375 3.40375 26.91625 3 28 C2.67 28 2.34 28 2 28 C2 26.02 2 24.04 2 22 C0.824375 22.0309375 0.824375 22.0309375 -0.375 22.0625 C-3 22 -3 22 -5 21 C-4.67 19.68 -4.34 18.36 -4 17 C-3.34 17 -2.68 17 -2 17 C-1.67 16.01 -1.34 15.02 -1 14 C-0.34 14 0.32 14 1 14 C0.67 10.04 0.34 6.08 0 2 C-2.97 1.505 -2.97 1.505 -6 1 C-6 1.66 -6 2.32 -6 3 C-7.32 2.67 -8.64 2.34 -10 2 C-6.29584707 -0.46943529 -4.37855495 -0.46913089 0 0 Z " fill="#265381" transform="translate(347,305)"/>
<path d="M0 0 C1.25 6.625 1.25 6.625 -1 10 C-4.5 10.3125 -4.5 10.3125 -8 10 C-10 8 -10 8 -10.3125 4.5 C-10.209375 3.345 -10.10625 2.19 -10 1 C-6.1496895 -1.56687367 -4.41430237 -0.83288724 0 0 Z " fill="#F3F4F5" transform="translate(299,189)"/>
<path d="M0 0 C0.2475 0.8971875 0.2475 0.8971875 0.5 1.8125 C2.81276204 5.18527798 6.19891337 5.8331548 10 7 C9 9 9 9 6.9375 10.0625 C3.07139254 11.29636408 0.09441428 11.9350093 -4 12 C-6.1875 9.6875 -6.1875 9.6875 -8 7 C-11.97206757 4.74558327 -15.49677268 4.82340285 -20 5 C-20 4.34 -20 3.68 -20 3 C-18.2507786 2.91857073 -16.50045458 2.86061459 -14.75 2.8125 C-13.28820312 2.76029297 -13.28820312 2.76029297 -11.796875 2.70703125 C-8.59429024 3.04249753 -7.43477784 3.99237616 -5 6 C-2.79199472 5.78282648 -2.79199472 5.78282648 -1 5 C-0.67 3.35 -0.34 1.7 0 0 Z " fill="#32669A" transform="translate(297,366)"/>
<path d="M0 0 C0.78375 0.04125 1.5675 0.0825 2.375 0.125 C4.46401197 3.51964446 4.71861606 6.17341529 4.375 10.125 C2.375 12.125 2.375 12.125 -0.125 12.375 C-2.625 12.125 -2.625 12.125 -4.625 10.125 C-4.890625 8.25 -4.890625 8.25 -4.875 6.125 C-4.88015625 5.42375 -4.8853125 4.7225 -4.890625 4 C-4.43038182 0.75122461 -3.13681296 0.14937205 0 0 Z " fill="#04111C" transform="translate(232.625,341.875)"/>
<path d="M0 0 C0.33 -0.66 0.66 -1.32 1 -2 C0.814375 -1.484375 0.62875 -0.96875 0.4375 -0.4375 C-0.15419517 2.85908739 0.432733 5.72245735 1 9 C-0.58468677 8.54636829 -2.16769924 8.08688548 -3.75 7.625 C-4.63171875 7.36976563 -5.5134375 7.11453125 -6.421875 6.8515625 C-8.76080572 6.0790066 -10.83442562 5.16374324 -13 4 C-12.34 3.67 -11.68 3.34 -11 3 C-11 2.01 -11 1.02 -11 0 C-7.07632508 -2.82504594 -4.32061114 -1.49559616 0 0 Z " fill="#373A3F" transform="translate(320,370)"/>
<path d="M0 0 C-0.33 1.65 -0.66 3.3 -1 5 C-1.66 5 -2.32 5 -3 5 C-3.35964844 6.07894531 -3.35964844 6.07894531 -3.7265625 7.1796875 C-5.18676897 10.4136417 -6.97567748 12.51842703 -9.375 15.125 C-10.53128906 16.39730469 -10.53128906 16.39730469 -11.7109375 17.6953125 C-13.70849217 19.70650236 -15.68171438 21.3803758 -18 23 C-18.66 22.67 -19.32 22.34 -20 22 C-19.505 20.515 -19.505 20.515 -19 19 C-18.01 19 -17.02 19 -16 19 C-16 17.68 -16 16.36 -16 15 C-14.35 14.67 -12.7 14.34 -11 14 C-10.67 12.68 -10.34 11.36 -10 10 C-9.01 10 -8.02 10 -7 10 C-7.33 8.68 -7.66 7.36 -8 6 C-7.34 6 -6.68 6 -6 6 C-6 5.34 -6 4.68 -6 4 C-6.99 3.67 -7.98 3.34 -9 3 C-2.25 0 -2.25 0 0 0 Z " fill="#577EA4" transform="translate(349,333)"/>
<path d="M0 0 C6.625 -0.25 6.625 -0.25 10 2 C12.28090744 2.32700156 12.28090744 2.32700156 14.83862305 2.31884766 C16.30980843 2.34865219 16.30980843 2.34865219 17.81071472 2.37905884 C18.86704605 2.39061005 19.92337738 2.40216125 21.01171875 2.4140625 C22.63676079 2.44311172 22.63676079 2.44311172 24.29463196 2.4727478 C27.75884093 2.53258344 31.22308305 2.5789453 34.6875 2.625 C37.03451979 2.66317607 39.38152552 2.70222758 41.72851562 2.7421875 C47.48555234 2.83828824 53.24267359 2.92332413 59 3 C59 3.33 59 3.66 59 4 C49.33447041 4.37586505 39.66843032 4.70925849 30 5 C28.47681152 5.04737305 28.47681152 5.04737305 26.92285156 5.09570312 C7.88849446 5.62727486 7.88849446 5.62727486 1 2 C0.67 1.34 0.34 0.68 0 0 Z " fill="#6E91B3" transform="translate(154,379)"/>
<path d="M0 0 C2.5 -0.375 2.5 -0.375 5 0 C7.30163882 3.45245824 7.34490322 4.94738713 7 9 C5 11 5 11 2.5 11.25 C0 11 0 11 -2 9 C-2.34490322 4.94738713 -2.30163882 3.45245824 0 0 Z " fill="#04101E" transform="translate(245,327)"/>
<path d="M0 0 C4.32255278 -0.37050452 6.43101874 0.62067916 10 3 C11.32608822 3.68096422 12.65686601 4.35330586 14 5 C13.34 5 12.68 5 12 5 C12 5.66 12 6.32 12 7 C12.66 7 13.32 7 14 7 C14 7.66 14 8.32 14 9 C15.32 9.33 16.64 9.66 18 10 C18 8.35 18 6.7 18 5 C19.32 4.67 20.64 4.34 22 4 C21.67 6.64 21.34 9.28 21 12 C15.22429795 11.76425706 12.9816939 10.35523604 8.84375 6.43359375 C5.80422198 4.07023192 2.74936997 3.6577842 -1 3 C-0.67 2.01 -0.34 1.02 0 0 Z " fill="#2162A0" transform="translate(276,361)"/>
<path d="M0 0 C1.31677734 0.10054688 1.31677734 0.10054688 2.66015625 0.203125 C4.9375 0.75 4.9375 0.75 6.9375 3.75 C5.6175 3.75 4.2975 3.75 2.9375 3.75 C3.2675 5.07 3.5975 6.39 3.9375 7.75 C6.2475 8.41 8.5575 9.07 10.9375 9.75 C10.9375 11.07 10.9375 12.39 10.9375 13.75 C9.25 14.5625 9.25 14.5625 6.9375 14.75 C4.1875 12.75 4.1875 12.75 1.9375 9.75 C1.625 5.9375 1.625 5.9375 1.9375 2.75 C1.03 3.100625 0.1225 3.45125 -0.8125 3.8125 C-4.04256474 4.74424944 -5.01315605 4.73014627 -8.0625 3.75 C-9.0525 4.245 -9.0525 4.245 -10.0625 4.75 C-9.25 2.8125 -9.25 2.8125 -8.0625 0.75 C-4.95350854 -0.28633049 -3.21970853 -0.28451033 0 0 Z " fill="#245B91" transform="translate(312.0625,353.25)"/>
<path d="M0 0 C2.4375 0.1875 2.4375 0.1875 5 1 C6.375 2.75 6.375 2.75 7 5 C6.625 7.75 6.625 7.75 6 10 C4.35 10.33 2.7 10.66 1 11 C-0.5625 9.375 -0.5625 9.375 -2 7 C-1.57446809 1.57446809 -1.57446809 1.57446809 0 0 Z " fill="#041221" transform="translate(313,327)"/>
<path d="M0 0 C2.4375 0.1875 2.4375 0.1875 3.4375 1.1875 C3.79647436 7.64903846 3.79647436 7.64903846 1.4375 11.1875 C-1 10.8125 -1 10.8125 -3.5625 10.1875 C-4.94375018 7.42499964 -4.75329306 5.24018901 -4.5625 2.1875 C-2.5625 0.1875 -2.5625 0.1875 0 0 Z " fill="#031325" transform="translate(263.5625,337.8125)"/>
<path d="M0 0 C4.55555556 0.55555556 4.55555556 0.55555556 6 2 C6.1875 5.4375 6.1875 5.4375 6 9 C5.34 9.66 4.68 10.32 4 11 C1.375 10.625 1.375 10.625 -1 10 C-1.9765625 3.9453125 -1.9765625 3.9453125 -2 2 C-1.34 1.34 -0.68 0.68 0 0 Z " fill="#030E16" transform="translate(227,368)"/>
<path d="M0 0 C2 2 2 2 4 5 C4.66 5.33 5.32 5.66 6 6 C5.34 7.32 4.68 8.64 4 10 C3.01 9.34 2.02 8.68 1 8 C1.99 9.485 1.99 9.485 3 11 C2.67 11.99 2.34 12.98 2 14 C0.68 14 -0.64 14 -2 14 C-2 14.66 -2 15.32 -2 16 C-2.66 15.67 -3.32 15.34 -4 15 C-3.67 14.34 -3.34 13.68 -3 13 C-2.71856896 8.77853434 -3.19901879 5.82708507 -5 2 C-4.360625 1.855625 -3.72125 1.71125 -3.0625 1.5625 C-1.02454854 1.18992819 -1.02454854 1.18992819 0 0 Z " fill="#2F75B4" transform="translate(344,198)"/>
<path d="M0 0 C0.24492187 0.61359375 0.48984375 1.2271875 0.7421875 1.859375 C2.25052285 4.42635567 3.44256788 5.03857904 6.125 6.25 C6.84945313 6.58515625 7.57390625 6.9203125 8.3203125 7.265625 C8.87460937 7.50796875 9.42890625 7.7503125 10 8 C7.39582575 10.60417425 5.5966584 11.14988074 2 12 C-3.27300429 11.93396953 -8.07414421 10.89455992 -13 9 C-13 8.67 -13 8.34 -13 8 C-10.125 7.375 -10.125 7.375 -7 7 C-6.34 7.66 -5.68 8.32 -5 9 C-3.01178687 9.39764263 -1.01055661 9.73775349 1 10 C0.649375 9.278125 0.29875 8.55625 -0.0625 7.8125 C-1.10409017 4.6877295 -0.89096572 3.11838004 0 0 Z " fill="#396792" transform="translate(276,371)"/>
<path d="M0 0 C1.98 0 3.96 0 6 0 C6 0.99 6 1.98 6 3 C5.67 3.33 5.34 3.66 5 4 C5.45375 4.7425 5.9075 5.485 6.375 6.25 C7.68640796 8.46930578 8.88280803 10.67967822 10 13 C9.34 13.66 8.68 14.32 8 15 C6.68 15 5.36 15 4 15 C3.09112918 10.97500064 2.69836427 6.99600034 2.37890625 2.890625 C2.19134766 1.95476562 2.19134766 1.95476562 2 1 C1.34 0.67 0.68 0.34 0 0 Z M10 8 C11.98 8.99 11.98 8.99 14 10 C13.67 10.66 13.34 11.32 13 12 C12.01 12 11.02 12 10 12 C10 10.68 10 9.36 10 8 Z " fill="#020E1C" transform="translate(344,187)"/>
<path d="M0 0 C0.99 0.33 1.98 0.66 3 1 C3.33333333 2.33333333 3.66666667 3.66666667 4 5 C4.99 5.33 5.98 5.66 7 6 C6.29875 6.474375 5.5975 6.94875 4.875 7.4375 C1.09488344 10.80673433 -1.34083651 14.72340718 -4 19 C-4.66 18.67 -5.32 18.34 -6 18 C-4.7727206 13.49997553 -3.38136866 11.16321584 0 8 C0.33 7.01 0.66 6.02 1 5 C-0.65 5 -2.3 5 -4 5 C-2.25 1.125 -2.25 1.125 0 0 Z " fill="#2364A0" transform="translate(332,137)"/>
<path d="M0 0 C2 1.3125 2 1.3125 4 3 C4 3.99 4 4.98 4 6 C4.66 6 5.32 6 6 6 C7.296875 7.94140625 7.296875 7.94140625 8.75 10.5625 C10.73402507 14.0210721 12.73728469 17.00439899 15.4375 19.9375 C16.283125 20.948125 17.12875 21.95875 18 23 C17.67 23.99 17.34 24.98 17 26 C12.20272557 20.23873425 7.46542455 14.42773467 2.875 8.5 C2.10929688 7.5203125 1.34359375 6.540625 0.5546875 5.53125 C0.04164063 4.6959375 -0.47140625 3.860625 -1 3 C-0.67 2.01 -0.34 1.02 0 0 Z " fill="#315B94" transform="translate(137,176)"/>
<path d="M0 0 C0 3 0 3 -1 5 C-1.99 5 -2.98 5 -4 5 C-4 6.98 -4 8.96 -4 11 C-4.99 11.33 -5.98 11.66 -7 12 C-7 18.6 -7 25.2 -7 32 C-7.33 32 -7.66 32 -8 32 C-9.95607321 23.21344535 -9.80445693 14.28028861 -6 6 C-4.46551082 3.95870705 -2.99988543 2.63148549 -1 1 C-0.67 0.67 -0.34 0.34 0 0 Z " fill="#051A32" transform="translate(344,149)"/>
<path d="M0 0 C0.66 0 1.32 0 2 0 C2 0.66 2 1.32 2 2 C5.465 1.505 5.465 1.505 9 1 C9 1.99 9 2.98 9 4 C8.01 4 7.02 4 6 4 C5.67 5.98 5.34 7.96 5 10 C4.01 10.33 3.02 10.66 2 11 C-1.07692308 4.6 -1.07692308 4.6 -0.6875 1.5625 C-0.460625 1.046875 -0.23375 0.53125 0 0 Z " fill="#2C74B5" transform="translate(336,189)"/>
<path d="M0 0 C5.56731253 1.18647644 9.39754496 4.33028194 13.8125 7.8125 C12.8225 8.3075 12.8225 8.3075 11.8125 8.8125 C9.1875 7.875 9.1875 7.875 6.8125 6.8125 C6.8125 6.1525 6.8125 5.4925 6.8125 4.8125 C5.4925 4.4825 4.1725 4.1525 2.8125 3.8125 C2.8125 3.1525 2.8125 2.4925 2.8125 1.8125 C0.39513164 1.91941236 0.39513164 1.91941236 -2.1875 2.8125 C-3.87007823 5.09039958 -3.87007823 5.09039958 -5 7.875 C-5.41894531 8.79410156 -5.83789062 9.71320313 -6.26953125 10.66015625 C-6.57246094 11.37042969 -6.87539062 12.08070312 -7.1875 12.8125 C-7.8475 12.8125 -8.5075 12.8125 -9.1875 12.8125 C-8.73748331 6.51226633 -6.44906799 1.64388008 0 0 Z " fill="#7BA4C8" transform="translate(154.1875,80.1875)"/>
<path d="M0 0 C0 -0.66 0 -1.32 0 -2 C0.99 -1.67 1.98 -1.34 3 -1 C-6.22551253 5.51936219 -6.22551253 5.51936219 -12 7 C-12 6.34 -12 5.68 -12 5 C-12.66 5 -13.32 5 -14 5 C-13.67 4.34 -13.34 3.68 -13 3 C-11.35 3.33 -9.7 3.66 -8 4 C-8 3.34 -8 2.68 -8 2 C-9.65 1.67 -11.3 1.34 -13 1 C-7.88954258 -2.40697161 -5.7061143 -1.83026308 0 0 Z " fill="#4E88B8" transform="translate(322,233)"/>
<path d="M0 0 C0.928125 0.165 1.85625 0.33 2.8125 0.5 C5.74559187 0.96009284 7.25741623 0.94935592 10 0 C10 1.98 10 3.96 10 6 C7.36 5.34 4.72 4.68 2 4 C2 5.32 2 6.64 2 8 C1.01 8 0.02 8 -1 8 C-1.04241723 5.66705225 -1.04092937 3.33297433 -1 1 C-0.67 0.67 -0.34 0.34 0 0 Z " fill="#29649E" transform="translate(304,356)"/>
<path d="M0 0 C0.66 0.66 1.32 1.32 2 2 C1.7578125 4.1640625 1.7578125 4.1640625 1.125 6.625 C0.92132813 7.44226563 0.71765625 8.25953125 0.5078125 9.1015625 C0.34023437 9.72804688 0.17265625 10.35453125 0 11 C0.64453125 11.27585937 1.2890625 11.55171875 1.953125 11.8359375 C4 13 4 13 4.75 15.625 C4.8325 16.40875 4.915 17.1925 5 18 C3 16.625 3 16.625 1 15 C1 14.34 1 13.68 1 13 C0.34 13 -0.32 13 -1 13 C-2.78923164 9.19788277 -3.4671306 6.20417542 -3 2 C-2.01 1.34 -1.02 0.68 0 0 Z " fill="#426F9C" transform="translate(125,346)"/>
<path d="M0 0 C0.3125 2.8125 0.3125 2.8125 0 6 C-2.85074644 8.31141604 -4.3139451 9 -8 9 C-8.36794764 5.68847126 -8.29809215 4.39390748 -6.25 1.6875 C-4 0 -4 0 0 0 Z " fill="#071C33" transform="translate(349,327)"/>
<path d="M0 0 C1.32 0.33 2.64 0.66 4 1 C4 1.66 4 2.32 4 3 C6.475 3.99 6.475 3.99 9 5 C4.31971596 7.49615149 1.24671597 6.95394836 -4 6 C-4.33 5.34 -4.66 4.68 -5 4 C-3.35 3.34 -1.7 2.68 0 2 C0 1.34 0 0.68 0 0 Z " fill="#255E96" transform="translate(144,364)"/>
<path d="M0 0 C1.32 0 2.64 0 4 0 C4.33 1.32 4.66 2.64 5 4 C4.34 4 3.68 4 3 4 C3.01160156 4.69867188 3.02320313 5.39734375 3.03515625 6.1171875 C3.04869141 7.48230469 3.04869141 7.48230469 3.0625 8.875 C3.07410156 9.77992188 3.08570313 10.68484375 3.09765625 11.6171875 C3 14 3 14 2 16 C0.35 16 -1.3 16 -3 16 C-2.2575 14.824375 -2.2575 14.824375 -1.5 13.625 C0.43415935 8.95078158 0.26602877 4.98557619 0 0 Z " fill="#255D95" transform="translate(333,308)"/>
<path d="M0 0 C1.9375 1.5 1.9375 1.5 3 4 C3.28969785 8.56274117 3.11279581 12.54881676 2 17 C1.34 17 0.68 17 0 17 C0 12.05 0 7.1 0 2 C-2.97 1.505 -2.97 1.505 -6 1 C-6 1.66 -6 2.32 -6 3 C-7.32 2.67 -8.64 2.34 -10 2 C-6.29584707 -0.46943529 -4.37855495 -0.46913089 0 0 Z " fill="#6E8EAC" transform="translate(347,305)"/>
<path d="M0 0 C0 0.66 0 1.32 0 2 C-0.99 2.66 -1.98 3.32 -3 4 C-3.474375 4.825 -3.94875 5.65 -4.4375 6.5 C-6 9 -6 9 -8.125 9.875 C-8.74375 10.24625 -9.3625 10.6175 -10 11 C-10.81870185 14.56206661 -10.81870185 14.56206661 -11 18 C-11.33 18 -11.66 18 -12 18 C-12.58249212 14.08898149 -12.62884704 12.0379357 -10.546875 8.6015625 C-3.9217233 0 -3.9217233 0 0 0 Z " fill="#071C2E" transform="translate(288,185)"/>
<path d="M0 0 C1.3609623 2.7219246 0.70366248 4.1831957 0.0625 7.125 C-0.13214844 8.03507813 -0.32679687 8.94515625 -0.52734375 9.8828125 C-0.68332031 10.58148438 -0.83929688 11.28015625 -1 12 C0.32 12.33 1.64 12.66 3 13 C3 13.99 3 14.98 3 16 C-1.75 14.125 -1.75 14.125 -4 13 C-4.2120464 8.54702569 -3.72718916 5.12606298 -2 1 C-1.34 0.67 -0.68 0.34 0 0 Z " fill="#E0BCD6" transform="translate(69,149)"/>
<path d="M0 0 C0 0.66 0 1.32 0 2 C0.66 2 1.32 2 2 2 C1 4 1 4 -1 4.6875 C-1.66 4.790625 -2.32 4.89375 -3 5 C-3.33 4.67 -3.66 4.34 -4 4 C-6.33297433 3.95907063 -8.66705225 3.95758277 -11 4 C-10.67 4.99 -10.34 5.98 -10 7 C-10.66 7 -11.32 7 -12 7 C-12 5.68 -12 4.36 -12 3 C-12.66 3 -13.32 3 -14 3 C-13.67 2.34 -13.34 1.68 -13 1 C-12.01 1.33 -11.02 1.66 -10 2 C-6.3558226 -0.4294516 -4.28758728 -0.16179575 0 0 Z " fill="#5B80A6" transform="translate(331,303)"/>
<path d="M0 0 C0.66 0.99 1.32 1.98 2 3 C2.66 2.01 3.32 1.02 4 0 C4 1.98 4 3.96 4 6 C4.66 6 5.32 6 6 6 C6 6.99 6 7.98 6 9 C4.35 9 2.7 9 1 9 C1 10.65 1 12.3 1 14 C0.34 13.34 -0.32 12.68 -1 12 C-0.9765625 9.1796875 -0.9765625 9.1796875 -0.625 5.875 C-0.51414063 4.77929688 -0.40328125 3.68359375 -0.2890625 2.5546875 C-0.14597656 1.29011719 -0.14597656 1.29011719 0 0 Z " fill="#4982B7" transform="translate(138,319)"/>
<path d="M0 0 C0.33 1.32 0.66 2.64 1 4 C0.01 4.495 0.01 4.495 -1 5 C-0.79375 5.556875 -0.5875 6.11375 -0.375 6.6875 C0.10695211 9.659538 -0.73434972 11.31979941 -2 14 C-3.65 13.67 -5.3 13.34 -7 13 C-5.58832253 7.73829306 -3.25149768 4.27828642 0 0 Z " fill="#3879B6" transform="translate(152,288)"/>
<path d="M0 0 C0.99 0 1.98 0 3 0 C2.67 0.99 2.34 1.98 2 3 C1.34 2.67 0.68 2.34 0 2 C0 2.66 0 3.32 0 4 C-0.99 4.495 -0.99 4.495 -2 5 C-2 5.66 -2 6.32 -2 7 C-2.99 7 -3.98 7 -5 7 C-5 7.66 -5 8.32 -5 9 C-6.98 9 -8.96 9 -11 9 C-9.6089997 5.52614061 -8.33695343 4.32405371 -4.9375 2.8125 C-2.26504211 1.70341129 -2.26504211 1.70341129 0 0 Z " fill="#2D75B4" transform="translate(327,224)"/>
<path d="M0 0 C5.85272256 0.45020943 10.08220119 3.03839227 15 6 C14.34 6.66 13.68 7.32 13 8 C11.88625 7.505 11.88625 7.505 10.75 7 C7.86116688 5.77217129 7.86116688 5.77217129 4 6 C1.75 3 1.75 3 0 0 Z " fill="#587DA9" transform="translate(130,170)"/>
<path d="M0 0 C-1 2 -1 2 -3.375 3.0625 C-8.21552787 4.31436066 -13.02246895 4.66344096 -18 5 C-12.67145695 -0.54107753 -7.32094784 -0.25587779 0 0 Z " fill="#01101C" transform="translate(272,157)"/>
<path d="M0 0 C3.83484126 0.47935516 7.50908548 1.08570565 11.25 2.0625 C14.840836 3.12126781 14.840836 3.12126781 18 3 C18.33 3.99 18.66 4.98 19 6 C17.35 6.33 15.7 6.66 14 7 C13.67 6.34 13.34 5.68 13 5 C10.87423218 4.53348793 10.87423218 4.53348793 8.4375 4.375 C7.61121094 4.30023438 6.78492188 4.22546875 5.93359375 4.1484375 C5.29550781 4.09945312 4.65742188 4.05046875 4 4 C4 3.34 4 2.68 4 2 C2.35 2 0.7 2 -1 2 C-0.67 1.34 -0.34 0.68 0 0 Z " fill="#2F6EAA" transform="translate(257,152)"/>
<path d="M0 0 C0.66 0.33 1.32 0.66 2 1 C1.67 1.66 1.34 2.32 1 3 C0.01 3 -0.98 3 -2 3 C-2 4.65 -2 6.3 -2 8 C-2.70125 7.814375 -3.4025 7.62875 -4.125 7.4375 C-7.33888698 6.94843024 -9.83560336 7.33768442 -13 8 C-10.61664713 5.32561064 -8.12963852 3.84841988 -4.9375 2.25 C-4.05964844 1.80140625 -3.18179688 1.3528125 -2.27734375 0.890625 C-1.52582031 0.59671875 -0.77429688 0.3028125 0 0 Z " fill="#6393C0" transform="translate(182,262)"/>
<path d="M0 0 C0 2.64 0 5.28 0 8 C-0.66 8 -1.32 8 -2 8 C-2.66 9.32 -3.32 10.64 -4 12 C-6.03684712 7.92630576 -6.0257259 5.41062136 -5 1 C-2 0 -2 0 0 0 Z " fill="#3573AF" transform="translate(150,123)"/>
<path d="M0 0 C-0.58803797 3.02419525 -1.22678118 6.01758453 -2 9 C-3.9375 8.25 -3.9375 8.25 -6 7 C-6.625 5 -6.625 5 -7 3 C-7.66 2.34 -8.32 1.68 -9 1 C-5.92677456 0.08941469 -3.19902639 -0.08886184 0 0 Z " fill="#395E84" transform="translate(330,352)"/>
<path d="M0 0 C-5.79268546 3.86179031 -12.95503077 6.7616183 -20 6 C-20 5.34 -20 4.68 -20 4 C-15.545 3.505 -15.545 3.505 -11 3 C-11 2.34 -11 1.68 -11 1 C-7.26562152 0.12132271 -3.83225427 -0.08912219 0 0 Z " fill="#6A96BF" transform="translate(310,240)"/>
<path d="M0 0 C2.31 0 4.62 0 7 0 C7.33 1.65 7.66 3.3 8 5 C6.375 5.6875 6.375 5.6875 4 6 C0.75 4.5625 0.75 4.5625 -2 3 C-1.34 2.67 -0.68 2.34 0 2 C0 1.34 0 0.68 0 0 Z " fill="#3D3F40" transform="translate(288,378)"/>
<path d="M0 0 C0.33 0.66 0.66 1.32 1 2 C1.66 2.33 2.32 2.66 3 3 C3 4.32 3 5.64 3 7 C2.443125 7.0825 1.88625 7.165 1.3125 7.25 C-1.69714206 8.22610013 -3.62154752 9.95188814 -6 12 C-5.67 10.35 -5.34 8.7 -5 7 C-4.01 7 -3.02 7 -2 7 C-2 6.34 -2 5.68 -2 5 C-2.66 4.67 -3.32 4.34 -4 4 C-2.68 2.68 -1.36 1.36 0 0 Z " fill="#346C9E" transform="translate(260,372)"/>
<path d="M0 0 C2.9425963 0.30652045 5.34542308 0.67271154 8 2 C8.75 3.875 8.75 3.875 9 6 C8.01 7.485 8.01 7.485 7 9 C2.05 7.02 2.05 7.02 -3 5 C0.83619425 4.04095144 2.32431536 4.08107884 6 5 C5.67 4.34 5.34 3.68 5 3 C2.67843403 2.59270772 0.3431213 2.25561323 -2 2 C-1.34 1.34 -0.68 0.68 0 0 Z " fill="#296AA6" transform="translate(312,348)"/>
<path d="M0 0 C0.99 0 1.98 0 3 0 C2 2 1 4 0 6 C-0.66 6 -1.32 6 -2 6 C-2 6.66 -2 7.32 -2 8 C-3.98 8.33 -5.96 8.66 -8 9 C-8.66 7.68 -9.32 6.36 -10 5 C-8.906875 5.103125 -7.81375 5.20625 -6.6875 5.3125 C-5.470625 5.209375 -4.25375 5.10625 -3 5 C-1.21030974 2.57327433 -1.21030974 2.57327433 0 0 Z " fill="#031427" transform="translate(333,342)"/>
<path d="M0 0 C0.33 0.66 0.66 1.32 1 2 C1.66 2 2.32 2 3 2 C3 2.66 3 3.32 3 4 C2.01 4.33 1.02 4.66 0 5 C-0.33 6.65 -0.66 8.3 -1 10 C-2.65 10.33 -4.3 10.66 -6 11 C-6 8.42450164 -5.89525244 6.4619442 -5 4 C-3 2.875 -3 2.875 -1 2 C-0.67 1.34 -0.34 0.68 0 0 Z " fill="#376B9C" transform="translate(255,375)"/>
<path d="M0 0 C-0.99 0.495 -0.99 0.495 -2 1 C1.00617269 4.00617269 3.82381598 3.59585316 8 4 C8 4.33 8 4.66 8 5 C1.93107371 5.25287193 -3.16200408 4.69832609 -9 3 C-9 2.34 -9 1.68 -9 1 C-5.57367167 -0.61798838 -3.61944899 -1.34053666 0 0 Z " fill="#7599C4" transform="translate(186,248)"/>
<path d="M0 0 C0.66 0.33 1.32 0.66 2 1 C2 1.66 2 2.32 2 3 C3.65 2.67 5.3 2.34 7 2 C4.87666387 4.30854925 2.86387158 5.78412576 0.0625 7.1875 C-0.60652344 7.53167969 -1.27554688 7.87585938 -1.96484375 8.23046875 C-4 9 -4 9 -8 9 C-8 8.34 -8 7.68 -8 7 C-7.05125 6.773125 -6.1025 6.54625 -5.125 6.3125 C-1.80676612 5.30916286 -1.80676612 5.30916286 -0.625 2.375 C-0.41875 1.59125 -0.2125 0.8075 0 0 Z " fill="#C7ABD7" transform="translate(190,238)"/>
<path d="M0 0 C0.99 0.66 1.98 1.32 3 2 C0.36 4.97 -2.28 7.94 -5 11 C-5.66 9.68 -6.32 8.36 -7 7 C-6.01 6.67 -5.02 6.34 -4 6 C-4.33 4.35 -4.66 2.7 -5 1 C-3.68 1 -2.36 1 -1 1 C-0.67 0.67 -0.34 0.34 0 0 Z " fill="#608FBC" transform="translate(350,205)"/>
<path d="M0 0 C0.99 0.33 1.98 0.66 3 1 C1.35 3.64 -0.3 6.28 -2 9 C-3.32 8.67 -4.64 8.34 -6 8 C-6.33 7.01 -6.66 6.02 -7 5 C-4.69 3.68 -2.38 2.36 0 1 C0 0.67 0 0.34 0 0 Z " fill="#303741" transform="translate(356,197)"/>
<path d="M0 0 C0.99 0.33 1.98 0.66 3 1 C2.67 1.99 2.34 2.98 2 4 C2.66 4.66 3.32 5.32 4 6 C3.34 7.98 2.68 9.96 2 12 C1.67 12 1.34 12 1 12 C0.67 9.69 0.34 7.38 0 5 C-2.64 5 -5.28 5 -8 5 C-7.67 3.68 -7.34 2.36 -7 1 C-7 1.66 -7 2.32 -7 3 C-3.20452079 2.03223902 -3.20452079 2.03223902 0 0 Z " fill="#202225" transform="translate(299,184)"/>
<path d="M0 0 C4.95 0.99 4.95 0.99 10 2 C10 2.66 10 3.32 10 4 C12.97 4.33 15.94 4.66 19 5 C19 5.66 19 6.32 19 7 C11.79749803 6.1011656 6.04774539 5.12346276 0 1 C0 0.67 0 0.34 0 0 Z " fill="#4570AD" transform="translate(181,228)"/>
<path d="M0 0 C2.28648848 0.24107326 2.28648848 0.24107326 4.6875 0.125 C5.49574219 0.10695313 6.30398438 0.08890625 7.13671875 0.0703125 C7.75160156 0.04710937 8.36648438 0.02390625 9 0 C9.33 0.66 9.66 1.32 10 2 C3.04952816 3.21357445 -1.50023898 2.71975816 -8 0 C-8 -0.33 -8 -0.66 -8 -1 C-3.375 -2.25 -3.375 -2.25 0 0 Z " fill="#6D90B5" transform="translate(271,380)"/>
<path d="M0 0 C-3.00440021 2.00293347 -4.70993945 2.49271626 -8.1875 3.125 C-9.08855469 3.29257812 -9.98960937 3.46015625 -10.91796875 3.6328125 C-11.60503906 3.75398438 -12.29210937 3.87515625 -13 4 C-12.67 2.68 -12.34 1.36 -12 0 C-7.74433453 -1.16063604 -4.3164922 -0.76173392 0 0 Z " fill="#6F9AC6" transform="translate(306,374)"/>
<path d="M0 0 C0.66 0.33 1.32 0.66 2 1 C2 1.66 2 2.32 2 3 C1.34 3 0.68 3 0 3 C0.99 4.485 0.99 4.485 2 6 C2 6.99 2 7.98 2 9 C-1.68754757 8.50168276 -3.60490662 7.89932357 -6 5 C-5.01 4.67 -4.02 4.34 -3 4 C-2.67 3.34 -2.34 2.68 -2 2 C-1.34 2 -0.68 2 0 2 C0 1.34 0 0.68 0 0 Z " fill="#5A5C63" transform="translate(329,362)"/>
<path d="M0 0 C2.97 0.495 2.97 0.495 6 1 C5.38125 1.061875 4.7625 1.12375 4.125 1.1875 C3.073125 1.5896875 3.073125 1.5896875 2 2 C1.566875 3.2065625 1.566875 3.2065625 1.125 4.4375 C0 7 0 7 -3 8.25 C-3.99 8.4975 -4.98 8.745 -6 9 C-6.99 9.495 -6.99 9.495 -8 10 C-7.67 8.35 -7.34 6.7 -7 5 C-4.69 5 -2.38 5 0 5 C0 3.35 0 1.7 0 0 Z " fill="#04172D" transform="translate(306,360)"/>
<path d="M0 0 C2.64492308 1.32246154 2.97833787 2.64535898 4.1875 5.3125 C4.55230469 6.09238281 4.91710937 6.87226563 5.29296875 7.67578125 C6.07807525 10.2566562 5.89937661 11.49663962 5 14 C2.37200898 12.13497412 1.13634249 10.69589209 0.51171875 7.5078125 C0.27406427 5.0035728 0.0959336 2.51346021 0 0 Z " fill="#6A95BF" transform="translate(299,284)"/>
<path d="M0 0 C0.66 0 1.32 0 2 0 C2.70226141 1.24176695 3.38629109 2.49385599 4.0625 3.75 C4.44535156 4.44609375 4.82820312 5.1421875 5.22265625 5.859375 C6.1312406 8.36140628 5.88336837 9.5332355 5 12 C5 11.34 5 10.68 5 10 C4.01 9.67 3.02 9.34 2 9 C0.25 5.5625 0.25 5.5625 -1 2 C-0.67 1.34 -0.34 0.68 0 0 Z " fill="#2363A2" transform="translate(194,260)"/>
<path d="M0 0 C0.6290625 0.19335938 1.258125 0.38671875 1.90625 0.5859375 C7.24216385 2.2092125 12.57759268 3.69460565 18 5 C16.41796875 6.10546875 16.41796875 6.10546875 14 7 C10.80078125 6.42578125 10.80078125 6.42578125 7.3125 5.3125 C6.15363281 4.95800781 4.99476563 4.60351562 3.80078125 4.23828125 C2.87652344 3.82964844 1.95226562 3.42101562 1 3 C0.67 2.01 0.34 1.02 0 0 Z " fill="#6C99C2" transform="translate(146,177)"/>
<path d="M0 0 C0.556875 0.639375 1.11375 1.27875 1.6875 1.9375 C4.22066561 4.19680987 5.68341424 4.63149047 9 5 C9 6.32 9 7.64 9 9 C7.3125 9.8125 7.3125 9.8125 5 10 C2.25 7.875 2.25 7.875 0 5 C-0.3125 2.1875 -0.3125 2.1875 0 0 Z " fill="#2B394D" transform="translate(314,358)"/>
<path d="M0 0 C0.99 0 1.98 0 3 0 C3 0.66 3 1.32 3 2 C2.34 2 1.68 2 1 2 C1.33 3.32 1.66 4.64 2 6 C1.01 6 0.02 6 -1 6 C-1.33 7.32 -1.66 8.64 -2 10 C-3.65 10.33 -5.3 10.66 -7 11 C-6.34 9.68 -5.68 8.36 -5 7 C-4.01 7 -3.02 7 -2 7 C-1.855625 6.401875 -1.71125 5.80375 -1.5625 5.1875 C-1.1127561 3.43849596 -0.57107659 1.71322977 0 0 Z " fill="#245A8E" transform="translate(340,337)"/>
<path d="M0 0 C1.4540625 0.0309375 1.4540625 0.0309375 2.9375 0.0625 C2.9375 1.3825 2.9375 2.7025 2.9375 4.0625 C-0.0625 6.0625 -0.0625 6.0625 -4.0625 6.0625 C-4.105221 4.39638095 -4.10313832 2.72867115 -4.0625 1.0625 C-3.0625 0.0625 -3.0625 0.0625 0 0 Z " fill="#030D14" transform="translate(342.0625,317.9375)"/>
<path d="M0 0 C0.45375 0.474375 0.9075 0.94875 1.375 1.4375 C2.93258204 3.09027808 2.93258204 3.09027808 5 4 C5 4.66 5 5.32 5 6 C4.01 6.33 3.02 6.66 2 7 C3.65 7.33 5.3 7.66 7 8 C6.34 8.66 5.68 9.32 5 10 C3 9.8125 3 9.8125 1 9 C-1.14809171 5.77786243 -1.29386153 4.72224599 -1 1 C-0.67 0.67 -0.34 0.34 0 0 Z " fill="#031327" transform="translate(323,312)"/>
<path d="M0 0 C0.33 0.66 0.66 1.32 1 2 C2.98 2 4.96 2 7 2 C5.6875 3.5 5.6875 3.5 4 5 C3.01 5 2.02 5 1 5 C1 4.34 1 3.68 1 3 C-2.96 3.66 -6.92 4.32 -11 5 C-7.23452331 1.23452331 -5.09826415 1.08651531 0 0 Z " fill="#2C68A3" transform="translate(177,99)"/>
<path d="M0 0 C1.04005702 3.38018531 1.08004482 6.4780279 1 10 C-1.95929119 7.24479785 -4.03681826 4.53372712 -6 1 C-4.02 0.67 -2.04 0.34 0 0 Z " fill="#5C9AB4" transform="translate(325,186)"/>
<path d="M0 0 C0.680625 0.45375 1.36125 0.9075 2.0625 1.375 C5.30435186 3.16836486 8.4203441 4.08753869 12 5 C12 5.33 12 5.66 12 6 C10.906875 6.12375 9.81375 6.2475 8.6875 6.375 C4.92618198 6.75464801 4.92618198 6.75464801 2 9 C1.34 6.03 0.68 3.06 0 0 Z " fill="#6B93BB" transform="translate(339,143)"/>
<path d="M0 0 C1.28317892 3.84953676 1.06643637 6.94738135 1 11 C0.01 11.495 0.01 11.495 -1 12 C-0.95117188 8.92382812 -0.95117188 8.92382812 -0.90234375 5.84765625 C-0.79438816 3.98267859 -0.79438816 3.98267859 -2 3 C-5.63194641 2.80850919 -5.63194641 2.80850919 -9 4 C-8.3125 2.0625 -8.3125 2.0625 -7 0 C-4.12060581 -0.93580311 -2.74490212 -1.37245106 0 0 Z " fill="#2A547D" transform="translate(333,307)"/>
<path d="M0 0 C-0.66 0 -1.32 0 -2 0 C-2 1.32 -2 2.64 -2 4 C-3.32 4 -4.64 4 -6 4 C-6.66 5.32 -7.32 6.64 -8 8 C-8.6875 5.6875 -8.6875 5.6875 -9 3 C-6.51994196 -0.47208126 -4.09484949 -1.36494983 0 0 Z " fill="#92C1D3" transform="translate(300,267)"/>
<path d="M0 0 C2 3.75 2 3.75 2 6 C1.34 6 0.68 6 0 6 C0.16757813 6.59167969 0.33515625 7.18335938 0.5078125 7.79296875 C2.53075571 15.64147627 2.53075571 15.64147627 0 20 C-0.33 20 -0.66 20 -1 20 C-1.02712351 17.60408962 -1.0468982 15.20849043 -1.0625 12.8125 C-1.07087891 12.13896484 -1.07925781 11.46542969 -1.08789062 10.77148438 C-1.10606538 7.04565869 -0.89299392 3.6211958 0 0 Z " fill="#5D9AB9" transform="translate(243,181)"/>
<path d="M0 0 C0.66 1.32 1.32 2.64 2 4 C-0.80804268 6.96404505 -3.18315774 9.44499019 -7 11 C-5.5140084 6.40693504 -3.14985318 3.56430755 0 0 Z " fill="#E1BED8" transform="translate(79,130)"/>
<path d="M0 0 C2.25 -0.3125 2.25 -0.3125 5 0 C7.3125 2.5 7.3125 2.5 9 5 C8.278125 4.814375 7.55625 4.62875 6.8125 4.4375 C3.87173027 3.98004693 1.85896942 4.26483643 -1 5 C-0.67 3.35 -0.34 1.7 0 0 Z " fill="#4E85B6" transform="translate(173,96)"/>
<path d="M0 0 C2.625 0.375 2.625 0.375 5 1 C4.0409375 1.5878125 4.0409375 1.5878125 3.0625 2.1875 C0.56221181 4.38472296 0.35049575 5.75791433 0 9 C0.66 9 1.32 9 2 9 C2 9.66 2 10.32 2 11 C1.01 10.67 0.02 10.34 -1 10 C-1.9765625 3.9453125 -1.9765625 3.9453125 -2 2 C-1.34 1.34 -0.68 0.68 0 0 Z " fill="#041931" transform="translate(227,368)"/>
<path d="M0 0 C1.98 0 3.96 0 6 0 C6.33 0.99 6.66 1.98 7 3 C7.66 3.33 8.32 3.66 9 4 C6.1875 4.625 6.1875 4.625 3 5 C2.01 4.34 1.02 3.68 0 3 C0 2.01 0 1.02 0 0 Z " fill="#04090D" transform="translate(315,358)"/>
<path d="M0 0 C0.66 0.33 1.32 0.66 2 1 C1.67 2.65 1.34 4.3 1 6 C-1.64 6.33 -4.28 6.66 -7 7 C-5.1875 4.5 -5.1875 4.5 -3 2 C-2.01 2 -1.02 2 0 2 C0 1.34 0 0.68 0 0 Z " fill="#4080B8" transform="translate(342,212)"/>
<path d="M0 0 C0.66 0 1.32 0 2 0 C3.98046875 2.08203125 3.98046875 2.08203125 6.1875 4.8125 C6.92355469 5.70582031 7.65960938 6.59914062 8.41796875 7.51953125 C9.20107422 8.74736328 9.20107422 8.74736328 10 10 C9.67 10.99 9.34 11.98 9 13 C7.4941255 11.21326795 5.9954515 9.42046492 4.5 7.625 C3.6646875 6.62726563 2.829375 5.62953125 1.96875 4.6015625 C0 2 0 2 0 0 Z " fill="#396099" transform="translate(145,189)"/>
<path d="M0 0 C0.66 0.99 1.32 1.98 2 3 C-4.625 6 -4.625 6 -8 6 C-8.33 6.99 -8.66 7.98 -9 9 C-9.66 8.34 -10.32 7.68 -11 7 C-9.73299277 6.0158875 -8.4612381 5.03788503 -7.1875 4.0625 C-6.47980469 3.51722656 -5.77210938 2.97195312 -5.04296875 2.41015625 C-3 1 -3 1 0 0 Z " fill="#5A94AD" transform="translate(260,162)"/>
<path d="M0 0 C2.97 0.495 2.97 0.495 6 1 C6.05391993 2.79133978 6.09275571 4.58313899 6.125 6.375 C6.14820313 7.37273437 6.17140625 8.37046875 6.1953125 9.3984375 C6 12 6 12 4 14 C1.875 13.625 1.875 13.625 0 13 C0.66 12.649375 1.32 12.29875 2 11.9375 C4.35759384 10.0494316 4.35759384 10.0494316 4.5 6.5 C4.35759384 2.9505684 4.35759384 2.9505684 2 1.0625 C1.34 0.711875 0.68 0.36125 0 0 Z " fill="#26507B" transform="translate(228,367)"/>
<path d="M0 0 C0.165 0.598125 0.33 1.19625 0.5 1.8125 C2.81276204 5.18527798 6.19891337 5.8331548 10 7 C7.57886145 7.80704618 5.5021824 8.3225984 3 8.6875 C2.319375 8.79449219 1.63875 8.90148437 0.9375 9.01171875 C-1 9 -1 9 -4 7 C-3.01 6.34 -2.02 5.68 -1 5 C-0.27034634 2.43717258 -0.27034634 2.43717258 0 0 Z " fill="#2C5B8B" transform="translate(297,366)"/>
<path d="M0 0 C-0.33 1.65 -0.66 3.3 -1 5 C-1.66 5 -2.32 5 -3 5 C-3 5.66 -3 6.32 -3 7 C-3.99 6.67 -4.98 6.34 -6 6 C-6 5.34 -6 4.68 -6 4 C-6.99 3.67 -7.98 3.34 -9 3 C-2.25 0 -2.25 0 0 0 Z " fill="#4D7299" transform="translate(349,333)"/>
<path d="M0 0 C7.75 0.75 7.75 0.75 10 3 C8.02 3.99 6.04 4.98 4 6 C3.71125 5.38125 3.4225 4.7625 3.125 4.125 C2.06279958 1.86674235 2.06279958 1.86674235 0 0 Z " fill="#5F8BBD" transform="translate(125,330)"/>
<path d="M0 0 C2.5 -0.3125 2.5 -0.3125 5 0 C7 2 7 2 7.125 5.125 C7.08375 6.07375 7.0425 7.0225 7 8 C6.34 7.67 5.68 7.34 5 7 C4.375 4.4375 4.375 4.4375 4 2 C2.02 2.33 0.04 2.66 -2 3 C-1.34 2.01 -0.68 1.02 0 0 Z " fill="#021328" transform="translate(326,309)"/>
<path d="M0 0 C0.99 0.33 1.98 0.66 3 1 C3 1.66 3 2.32 3 3 C3.639375 3.28875 4.27875 3.5775 4.9375 3.875 C7 5 7 5 8 7 C5.36 6.67 2.72 6.34 0 6 C0 4.02 0 2.04 0 0 Z " fill="#588CBD" transform="translate(320,122)"/>
<path d="M0 0 C1.98 0.99 1.98 0.99 4 2 C3.67 2.66 3.34 3.32 3 4 C2.01 4 1.02 4 0 4 C0 2.68 0 1.36 0 0 Z M-4 1 C-3.01 1.33 -2.02 1.66 -1 2 C-0.67 2.99 -0.34 3.98 0 5 C-0.99 5.66 -1.98 6.32 -3 7 C-3.33 5.02 -3.66 3.04 -4 1 Z " fill="#060808" transform="translate(354,195)"/>
<path d="M0 0 C1.65 1.65 3.3 3.3 5 5 C3.35 5.66 1.7 6.32 0 7 C-0.99 6.01 -1.98 5.02 -3 4 C-2.34 4 -1.68 4 -1 4 C-0.67 2.68 -0.34 1.36 0 0 Z " fill="#4476A4" transform="translate(138,363)"/>
<path d="M0 0 C2.475 0.495 2.475 0.495 5 1 C4.67 2.65 4.34 4.3 4 6 C3.01 5.67 2.02 5.34 1 5 C0.67 5.66 0.34 6.32 0 7 C0 4.69 0 2.38 0 0 Z " fill="#06080B" transform="translate(261,339)"/>
<path d="M0 0 C0.88945312 0.29970703 0.88945312 0.29970703 1.796875 0.60546875 C0.50670086 1.58660118 -0.78531606 2.56531074 -2.078125 3.54296875 C-2.79742187 4.08824219 -3.51671875 4.63351563 -4.2578125 5.1953125 C-6.203125 6.60546875 -6.203125 6.60546875 -8.203125 7.60546875 C-8.203125 6.28546875 -8.203125 4.96546875 -8.203125 3.60546875 C-3.22809339 -0.57808055 -3.22809339 -0.57808055 0 0 Z " fill="#316A9E" transform="translate(253.203125,158.39453125)"/>
<path d="M0 0 C0 0.99 0 1.98 0 3 C-0.639375 3.12375 -1.27875 3.2475 -1.9375 3.375 C-2.618125 3.58125 -3.29875 3.7875 -4 4 C-4.33 4.66 -4.66 5.32 -5 6 C-5.99 5.34 -6.98 4.68 -8 4 C-8 3.34 -8 2.68 -8 2 C-5.36 1.34 -2.72 0.68 0 0 Z " fill="#28547F" transform="translate(254,375)"/>
<path d="M0 0 C1.32 0.66 2.64 1.32 4 2 C3.34 3.32 2.68 4.64 2 6 C-2.455 4.02 -2.455 4.02 -7 2 C-3 1 -3 1 0 2 C0 1.34 0 0.68 0 0 Z " fill="#5F8AAB" transform="translate(147,369)"/>
<path d="M0 0 C3.28788824 3.11016455 5.83735988 6.01618925 8 10 C7.01 10 6.02 10 5 10 C4.67 9.34 4.34 8.68 4 8 C3.01 7.67 2.02 7.34 1 7 C0.67 4.69 0.34 2.38 0 0 Z " fill="#B6A2D0" transform="translate(137,180)"/>
<path d="M0 0 C0.66 0.66 1.32 1.32 2 2 C1.67 2.99 1.34 3.98 1 5 C-0.98 5.33 -2.96 5.66 -5 6 C-4.1875 3.5625 -4.1875 3.5625 -3 1 C-2.01 0.67 -1.02 0.34 0 0 Z " fill="#050D18" transform="translate(252,162)"/>
<path d="M0 0 C1.65 0 3.3 0 5 0 C5.33 0.66 5.66 1.32 6 2 C5.01 3.485 5.01 3.485 4 5 C2.68 4.67 1.36 4.34 0 4 C0 2.68 0 1.36 0 0 Z " fill="#0C1216" transform="translate(322,362)"/>
<path d="M0 0 C1.32 0 2.64 0 4 0 C4.33 1.32 4.66 2.64 5 4 C4.34 4 3.68 4 3 4 C2.67 5.65 2.34 7.3 2 9 C1.67 9 1.34 9 1 9 C0.67 6.03 0.34 3.06 0 0 Z " fill="#3D6F9C" transform="translate(333,308)"/>
<path d="M0 0 C2.97 0.495 2.97 0.495 6 1 C6 1.99 6 2.98 6 4 C3.69 4 1.38 4 -1 4 C-0.67 2.68 -0.34 1.36 0 0 Z " fill="#235C91" transform="translate(341,306)"/>
<path d="M0 0 C0.66 0 1.32 0 2 0 C1.67 3.3 1.34 6.6 1 10 C0.34 10 -0.32 10 -1 10 C-1.02689216 8.52093108 -1.04634621 7.04172517 -1.0625 5.5625 C-1.07410156 4.73878906 -1.08570313 3.91507813 -1.09765625 3.06640625 C-1 1 -1 1 0 0 Z " fill="#010B13" transform="translate(241,175)"/>
<path d="M0 0 C0.99 0.33 1.98 0.66 3 1 C1.68 3.64 0.36 6.28 -1 9 C-1.66 9 -2.32 9 -3 9 C-2.5020163 5.26512223 -2.12508244 3.18762365 0 0 Z " fill="#608FB7" transform="translate(148,84)"/>
<path d="M0 0 C0.66 0 1.32 0 2 0 C2 1.65 2 3.3 2 5 C0.35 5.33 -1.3 5.66 -3 6 C-2.67 4.68 -2.34 3.36 -2 2 C-1.34 2 -0.68 2 0 2 C0 1.34 0 0.68 0 0 Z " fill="#010D17" transform="translate(346,328)"/>
<path d="M0 0 C1.875 0.25 1.875 0.25 4 1 C5.25 3.0625 5.25 3.0625 6 5 C5.21625 4.814375 4.4325 4.62875 3.625 4.4375 C1.02910225 3.74037734 1.02910225 3.74037734 -1 5 C-0.67 3.35 -0.34 1.7 0 0 Z " fill="#78B2CF" transform="translate(290,246)"/>
<path d="M0 0 C2.44959258 3.67438887 2.07735068 5.66836193 2 10 C2.33 10.99 2.66 11.98 3 13 C2.01 13 1.02 13 0 13 C0 8.71 0 4.42 0 0 Z " fill="#306195" transform="translate(346,190)"/>
<path d="M0 0 C3.04470873 1.52235436 4.20270948 4.18424486 6 7 C5.34 8.32 4.68 9.64 4 11 C3.32591692 9.73308493 2.66099503 8.46129251 2 7.1875 C1.62875 6.47980469 1.2575 5.77210938 0.875 5.04296875 C0 3 0 3 0 0 Z " fill="#6186AB" transform="translate(151,144)"/>
<path d="M0 0 C6.625 -0.25 6.625 -0.25 10 2 C10 2.66 10 3.32 10 4 C6.28111761 3.49287967 3.26545761 2.88391785 0 1 C0 0.67 0 0.34 0 0 Z " fill="#6288AB" transform="translate(154,379)"/>
<path d="M0 0 C1.32 0.33 2.64 0.66 4 1 C3.67 2.98 3.34 4.96 3 7 C2.01 7 1.02 7 0 7 C0 4.69 0 2.38 0 0 Z " fill="#2E6EAA" transform="translate(303,357)"/>
<path d="M0 0 C1.65 0.33 3.3 0.66 5 1 C3.49336217 4.01327566 0.96833589 4.61056618 -2 6 C-1.34 4.02 -0.68 2.04 0 0 Z " fill="#3C7FB2" transform="translate(289,274)"/>
<path d="M0 0 C1.32 0.66 2.64 1.32 4 2 C-1.75 5 -1.75 5 -4 5 C-4 4.34 -4 3.68 -4 3 C-4.66 3 -5.32 3 -6 3 C-5.67 2.34 -5.34 1.68 -5 1 C-3.35 1.33 -1.7 1.66 0 2 C0 1.34 0 0.68 0 0 Z " fill="#6595C2" transform="translate(314,235)"/>
<path d="M0 0 C0.99 0 1.98 0 3 0 C4.42944945 2.35438733 5.08661261 3.48032433 4.625 6.25 C4.41875 6.8275 4.2125 7.405 4 8 C1.84622436 5.37801226 0.59927826 3.35595828 0 0 Z " fill="#E0C3DA" transform="translate(71,196)"/>
<path d="M0 0 C2.64 0 5.28 0 8 0 C8 0.66 8 1.32 8 2 C5.69 2.66 3.38 3.32 1 4 C0.67 2.68 0.34 1.36 0 0 Z " fill="#E4C0DB" transform="translate(82,128)"/>
<path d="M0 0 C0.66 0.33 1.32 0.66 2 1 C3.33059914 4.99179743 2.81502739 7.26317891 1 11 C0.67 11 0.34 11 0 11 C-0.33 8.69 -0.66 6.38 -1 4 C-0.34 4 0.32 4 1 4 C0.67 2.68 0.34 1.36 0 0 Z " fill="#85A1B7" transform="translate(349,322)"/>
<path d="M0 0 C0.33 0.66 0.66 1.32 1 2 C1.66 2 2.32 2 3 2 C3 1.34 3 0.68 3 0 C4.65 0.33 6.3 0.66 8 1 C8 1.66 8 2.32 8 3 C5.36 3.33 2.72 3.66 0 4 C0 2.68 0 1.36 0 0 Z " fill="#2C5E8B" transform="translate(338,187)"/>
<path d="M0 0 C3.93673644 1.31224548 6.22719294 2.91910327 9 6 C7.35 6 5.7 6 4 6 C4 5.34 4 4.68 4 4 C2.68 3.34 1.36 2.68 0 2 C0 1.34 0 0.68 0 0 Z " fill="#6490C0" transform="translate(311,116)"/>
<path d="M0 0 C0.33 1.32 0.66 2.64 1 4 C0.01 4.495 0.01 4.495 -1 5 C-1.65213292 7.02463255 -1.65213292 7.02463255 -2 9 C-2.99 9 -3.98 9 -5 9 C-3.7508258 5.54074837 -2.32472205 2.85306797 0 0 Z " fill="#5687B4" transform="translate(152,288)"/>
<path d="M0 0 C-1.65 1.32 -3.3 2.64 -5 4 C-5.99 3.01 -6.98 2.02 -8 1 C-4.93251126 -0.86240388 -3.40254489 -1.2151946 0 0 Z " fill="#061923" transform="translate(296,183)"/>
<path d="M0 0 C1.22589844 0.01353516 1.22589844 0.01353516 2.4765625 0.02734375 C3.41628906 0.04474609 3.41628906 0.04474609 4.375 0.0625 C0.93049263 2.35883824 -1.56312283 2.60266485 -5.625 3.0625 C-5.955 2.4025 -6.285 1.7425 -6.625 1.0625 C-4.21954362 -0.14022819 -2.67503047 -0.03821472 0 0 Z " fill="#5C8CB6" transform="translate(239.625,102.9375)"/>
<path d="M0 0 C0.66 0 1.32 0 2 0 C0.60667426 3.36720387 -0.9789286 4.9859524 -4 7 C-3.67 5.35 -3.34 3.7 -3 2 C-2.01 2 -1.02 2 0 2 C0 1.34 0 0.68 0 0 Z " fill="#5E82A8" transform="translate(258,377)"/>
<path d="M0 0 C1.32 0.33 2.64 0.66 4 1 C3.67 2.65 3.34 4.3 3 6 C2.01 5.67 1.02 5.34 0 5 C0 3.35 0 1.7 0 0 Z " fill="#245B8E" transform="translate(134,361)"/>
<path d="M0 0 C1.875 0.125 1.875 0.125 4 1 C5.25 4.0625 5.25 4.0625 6 7 C4 5.625 4 5.625 2 4 C2 3.34 2 2.68 2 2 C1.34 2 0.68 2 0 2 C0 1.34 0 0.68 0 0 Z " fill="#6D8FB1" transform="translate(124,357)"/>
<path d="M0 0 C0.625 1.875 0.625 1.875 1 4 C0.34 4.66 -0.32 5.32 -1 6 C-3.625 5.625 -3.625 5.625 -6 5 C-5.01 4.34 -4.02 3.68 -3 3 C-1.98131338 2.01904252 -0.97648017 1.02297922 0 0 Z " fill="#031628" transform="translate(319,332)"/>
<path d="M0 0 C0.33 0 0.66 0 1 0 C1 2.31 1 4.62 1 7 C0.01 7 -0.98 7 -2 7 C-2.33 7.66 -2.66 8.32 -3 9 C-3.33 7.68 -3.66 6.36 -4 5 C-3.01 4.67 -2.02 4.34 -1 4 C-0.26676204 1.98491642 -0.26676204 1.98491642 0 0 Z " fill="#5E9FB5" transform="translate(299,259)"/>
<path d="M0 0 C0.66 0 1.32 0 2 0 C2.33 0.99 2.66 1.98 3 3 C5.01508358 3.73323796 5.01508358 3.73323796 7 4 C6.01 4.33 5.02 4.66 4 5 C4 5.66 4 6.32 4 7 C3.34 7 2.68 7 2 7 C1.34 4.69 0.68 2.38 0 0 Z " fill="#011429" transform="translate(337,182)"/>
<path d="M0 0 C0.66 0 1.32 0 2 0 C1.75 2.375 1.75 2.375 1 5 C-1.0625 6.3125 -1.0625 6.3125 -3 7 C-3 6.34 -3 5.68 -3 5 C-2.34 5 -1.68 5 -1 5 C-0.67 3.35 -0.34 1.7 0 0 Z " fill="#D8B4CE" transform="translate(73,183)"/>
<path d="M0 0 C0.99 0 1.98 0 3 0 C3.66 2.64 4.32 5.28 5 8 C2.20127563 5.47211993 0.54226981 3.79588866 0 0 Z " fill="#6C8DB1" transform="translate(156,155)"/>
<path d="M0 0 C3.93673644 1.31224548 6.22719294 2.91910327 9 6 C7.02 5.34 5.04 4.68 3 4 C3 3.34 3 2.68 3 2 C2.01 2 1.02 2 0 2 C0 1.34 0 0.68 0 0 Z " fill="#E5C7DE" transform="translate(94,131)"/>
<path d="M0 0 C0.99 0.33 1.98 0.66 3 1 C3 2.65 3 4.3 3 6 C2.01 6 1.02 6 0 6 C-0.66 4.35 -1.32 2.7 -2 1 C-1.34 0.67 -0.68 0.34 0 0 Z " fill="#84AACC" transform="translate(214,104)"/>
<path d="M0 0 C2.3125 1.9375 2.3125 1.9375 4 4 C-0.455 3.01 -0.455 3.01 -5 2 C-5 1.67 -5 1.34 -5 1 C-2.75 0.25 -2.75 0.25 0 0 Z " fill="#5880A7" transform="translate(268,378)"/>
<path d="M0 0 C1.98 0 3.96 0 6 0 C6 0.33 6 0.66 6 1 C4.35 1 2.7 1 1 1 C1.33 2.65 1.66 4.3 2 6 C1.01 5.67 0.02 5.34 -1 5 C-0.67 3.35 -0.34 1.7 0 0 Z " fill="#021934" transform="translate(278,370)"/>
<path d="M0 0 C0.66 0.33 1.32 0.66 2 1 C1.67 2.65 1.34 4.3 1 6 C0.01 6 -0.98 6 -2 6 C-2 4.35 -2 2.7 -2 1 C-1.34 0.67 -0.68 0.34 0 0 Z " fill="#2B6EAF" transform="translate(296,365)"/>
<path d="M0 0 C0.33 0 0.66 0 1 0 C1 1.98 1 3.96 1 6 C-0.65 6.33 -2.3 6.66 -4 7 C-4 6.01 -4 5.02 -4 4 C-2.02 4.495 -2.02 4.495 0 5 C0 3.35 0 1.7 0 0 Z " fill="#010F21" transform="translate(251,330)"/>
<path d="M0 0 C2.64 1.65 5.28 3.3 8 5 C5 6 5 6 2.875 5.3125 C1 4 1 4 0 0 Z " fill="#C7AAD6" transform="translate(174,224)"/>
<path d="M0 0 C4.875 4.625 4.875 4.625 6 8 C5.01 8 4.02 8 3 8 C0 2.25 0 2.25 0 0 Z " fill="#041828" transform="translate(279,207)"/>
<path d="M0 0 C0.66 0.33 1.32 0.66 2 1 C0.92598892 3.91517292 0.22189824 5.77810176 -2 8 C-2 4.23312136 -1.76462683 3.08809695 0 0 Z " fill="#2168A5" transform="translate(329,148)"/>
<path d="M0 0 C1.65 1.65 3.3 3.3 5 5 C4.67 5.66 4.34 6.32 4 7 C3.01 7 2.02 7 1 7 C0.67 4.69 0.34 2.38 0 0 Z " fill="#5F91BA" transform="translate(334,136)"/>
<path d="M0 0 C0.66 1.32 1.32 2.64 2 4 C1.34 4 0.68 4 0 4 C-0.66 5.32 -1.32 6.64 -2 8 C-2.33 6.02 -2.66 4.04 -3 2 C-2.01 2.33 -1.02 2.66 0 3 C0 2.01 0 1.02 0 0 Z " fill="#4479AB" transform="translate(148,127)"/>
</svg>
